# Blender 4.3.2
# www.blender.org
mtllib trash.mtl
o Object_4
v 0.214324 0.069742 -0.095883
v 0.214324 0.069742 -0.095883
v 0.214324 0.069742 -0.095883
v 0.214324 0.069742 -0.095883
v 0.083154 0.056567 -0.137032
v 0.083154 0.056567 -0.137032
v 0.166473 0.091285 -0.124980
v 0.166473 0.091285 -0.124980
v 0.081265 0.083454 -0.124980
v 0.081265 0.083454 -0.124980
v 0.157999 0.099854 -0.095883
v 0.157999 0.099854 -0.095883
v 0.157999 0.099854 -0.095883
v 0.157999 0.099854 -0.095883
v 0.079047 0.095300 -0.095883
v 0.079047 0.095300 -0.095883
v 0.079047 0.095300 -0.095883
v 0.079047 0.095300 -0.095883
v 0.188813 0.080374 -0.068246
v 0.188813 0.080374 -0.068246
v 0.081265 0.083454 -0.066787
v 0.081265 0.083454 -0.066787
v 0.179477 0.090709 -0.076341
v 0.179477 0.090709 -0.076341
v 0.083154 0.056567 -0.054735
v 0.083154 0.056567 -0.054735
v 0.212269 0.061020 -0.066787
v 0.212269 0.061020 -0.066787
v 0.060014 0.028671 -0.066787
v 0.060014 0.028671 -0.066787
v 0.188813 0.080374 -0.123521
v 0.188813 0.080374 -0.123521
v 0.056041 0.017293 -0.095883
v 0.056041 0.017293 -0.095883
v 0.056041 0.017293 -0.095883
v 0.056041 0.017293 -0.095883
v 0.212269 0.061020 -0.124980
v 0.212269 0.061020 -0.124980
v 0.060014 0.028671 -0.124980
v 0.060014 0.028671 -0.124980
v 0.185741 0.061763 -0.137032
v 0.185741 0.061763 -0.137032
v 0.206852 0.072856 -0.115426
v 0.206852 0.072856 -0.115426
v 0.206852 0.072856 -0.076341
v 0.206852 0.072856 -0.076341
v 0.166473 0.091285 -0.066787
v 0.166473 0.091285 -0.066787
v 0.185741 0.061763 -0.054735
v 0.185741 0.061763 -0.054735
v 0.173785 0.096465 -0.095883
v 0.173785 0.096465 -0.095883
v 0.173785 0.096465 -0.095883
v 0.173785 0.096465 -0.095883
v 0.223394 0.056384 -0.095883
v 0.223394 0.056384 -0.095883
v 0.223394 0.056384 -0.095883
v 0.223394 0.056384 -0.095883
v 0.179477 0.090709 -0.115426
v 0.179477 0.090709 -0.115426
v 0.180943 0.092159 -0.115426
v 0.180943 0.092159 -0.115426
v 0.175251 0.097915 -0.095883
v 0.175251 0.097915 -0.095883
v 0.175251 0.097915 -0.095883
v 0.180943 0.092159 -0.076341
v 0.180943 0.092159 -0.076341
v 0.189606 0.082277 -0.068246
v 0.189606 0.082277 -0.068246
v 0.189606 0.082277 -0.123521
v 0.189606 0.082277 -0.123521
v 0.207645 0.074760 -0.076341
v 0.207645 0.074760 -0.076341
v 0.215117 0.071646 -0.095883
v 0.215117 0.071646 -0.095883
v 0.215117 0.071646 -0.095883
v 0.207645 0.074760 -0.115426
v 0.207645 0.074760 -0.115426
v 0.050828 0.062699 -0.128373
v 0.050828 0.062699 -0.128373
v 0.058402 0.084389 -0.118857
v 0.058402 0.084389 -0.118857
v 0.061540 0.093372 -0.095883
v 0.061540 0.093372 -0.095883
v 0.061540 0.093372 -0.095883
v 0.061540 0.093372 -0.095883
v 0.058402 0.084388 -0.072910
v 0.058402 0.084388 -0.072910
v 0.050828 0.062699 -0.063394
v 0.050828 0.062699 -0.063394
v 0.037550 0.045831 -0.072910
v 0.037550 0.045831 -0.072910
v 0.030930 0.038995 -0.095883
v 0.030930 0.038995 -0.095883
v 0.030930 0.038995 -0.095883
v 0.030930 0.038995 -0.095883
v 0.037550 0.045831 -0.118857
v 0.037550 0.045831 -0.118857
v 0.048420 0.063540 -0.129840
v 0.056337 0.086208 -0.119894
v 0.059616 0.095598 -0.095883
v 0.059616 0.095598 -0.095883
v 0.056337 0.086208 -0.071873
v 0.048420 0.063540 -0.061927
v 0.034997 0.046859 -0.071873
v 0.028078 0.039715 -0.095883
v 0.028078 0.039715 -0.095883
v 0.034997 0.046859 -0.119894
v 0.046424 0.064237 -0.126297
v 0.046424 0.064237 -0.126297
v 0.053514 0.084540 -0.117389
v 0.053514 0.084540 -0.117389
v 0.056452 0.092950 -0.095883
v 0.056452 0.092950 -0.095883
v 0.056452 0.092950 -0.095883
v 0.056452 0.092950 -0.095883
v 0.053514 0.084540 -0.074378
v 0.053514 0.084540 -0.074378
v 0.046424 0.064237 -0.065470
v 0.046424 0.064237 -0.065470
v 0.035221 0.050130 -0.074378
v 0.035221 0.050130 -0.074378
v 0.029023 0.043731 -0.095883
v 0.029023 0.043731 -0.095883
v 0.029023 0.043731 -0.095883
v 0.029023 0.043731 -0.095883
v 0.035221 0.050130 -0.117389
v 0.035221 0.050130 -0.117389
v 0.052575 0.062089 -0.125233
v 0.052575 0.062089 -0.125233
v 0.059417 0.081682 -0.116637
v 0.059417 0.081682 -0.116637
v 0.062252 0.089798 -0.095883
v 0.062252 0.089798 -0.095883
v 0.062252 0.089798 -0.095883
v 0.062252 0.089798 -0.095883
v 0.059417 0.081682 -0.075130
v 0.059417 0.081682 -0.075130
v 0.052575 0.062089 -0.066533
v 0.052575 0.062089 -0.066533
v 0.040424 0.046138 -0.075130
v 0.040424 0.046138 -0.075130
v 0.034443 0.039963 -0.095883
v 0.034443 0.039963 -0.095883
v 0.034443 0.039963 -0.095883
v 0.034443 0.039963 -0.095883
v 0.040424 0.046138 -0.116637
v 0.040424 0.046138 -0.116637
v 0.050038 0.062975 -0.122011
v 0.050038 0.062975 -0.122011
v 0.056130 0.080417 -0.114359
v 0.056130 0.080417 -0.114359
v 0.058653 0.087642 -0.095883
v 0.058653 0.087642 -0.095883
v 0.058653 0.087642 -0.095883
v 0.056130 0.080417 -0.077408
v 0.056130 0.080417 -0.077408
v 0.050038 0.062975 -0.069755
v 0.050038 0.062975 -0.069755
v 0.040079 0.049644 -0.077408
v 0.040079 0.049644 -0.077408
v 0.034755 0.044146 -0.095883
v 0.034755 0.044146 -0.095883
v 0.034755 0.044146 -0.095883
v 0.040079 0.049644 -0.114359
v 0.040079 0.049644 -0.114359
v 0.106811 0.060442 -0.124980
v 0.106431 0.072488 -0.095883
v 0.106431 0.072488 -0.095883
v 0.094775 0.012070 -0.066787
v 0.094775 0.012070 -0.124980
v 0.107405 0.041578 -0.137032
v 0.106811 0.060442 -0.066787
v 0.107405 0.041578 -0.054735
v 0.095154 0.000024 -0.095883
v 0.095154 0.000024 -0.095883
v 0.130549 0.055884 -0.124980
v 0.123389 0.064521 -0.095883
v 0.123389 0.064521 -0.095883
v 0.155606 0.008613 -0.066787
v 0.155606 0.008613 -0.124980
v 0.130549 0.055884 -0.066787
v 0.147510 0.045251 -0.054735
v 0.162765 -0.000024 -0.095883
v 0.162765 -0.000024 -0.095883
v 0.147510 0.045251 -0.137032
vn 0.0211 0.0455 -0.9987
vn 0.1361 0.1343 -0.9815
vn 0.5700 0.6761 -0.4668
vn 0.3392 0.7152 -0.6111
vn 0.6545 0.7560 -0.0001
vn 0.5097 0.8604 -0.0000
vn 0.6545 0.7561 0.0001
vn 0.5700 0.6761 0.4668
vn 0.3392 0.7152 0.6111
vn 0.1361 0.1343 0.9815
vn 0.0212 0.0456 0.9987
vn -0.3088 -0.6480 0.6963
vn -0.1765 -0.7004 0.6916
vn -0.4168 -0.9090 -0.0000
vn -0.2134 -0.9770 -0.0000
vn -0.0847 0.9964 -0.0000
vn -0.1515 0.6722 -0.7247
vn -0.1423 0.7198 -0.6795
vn -0.3088 -0.6480 -0.6963
vn -0.1765 -0.7005 -0.6915
vn 0.2905 0.8162 -0.4994
vn 0.2099 0.9777 -0.0000
vn 0.2858 0.8277 -0.4830
vn 0.6288 0.5869 0.5101
vn 0.8273 0.5617 -0.0000
vn 0.6472 0.5863 0.4873
vn 0.6288 0.5869 -0.5101
vn 0.6472 0.5863 -0.4873
vn 0.3950 0.5830 0.7100
vn 0.3767 0.5923 0.7122
vn 0.2904 0.8162 0.4995
vn 0.2858 0.8277 0.4830
vn 0.3949 0.5830 -0.7100
vn 0.3766 0.5923 -0.7122
vn 0.0143 0.0481 0.9987
vn 0.6527 -0.2720 0.7071
vn -0.0944 0.1089 0.9896
vn 0.9231 -0.3846 -0.0000
vn 0.6527 -0.2720 -0.7071
vn 0.9231 -0.3847 -0.0000
vn -0.5704 0.4984 0.6529
vn -0.5736 0.5039 0.6458
vn -0.7032 0.7110 -0.0000
vn 0.9230 -0.3847 -0.0000
vn 0.0143 0.0481 -0.9987
vn -0.0944 0.1089 -0.9896
vn -0.5704 0.4983 -0.6529
vn -0.5736 0.5039 -0.6458
vn 0.4173 -0.2053 -0.8853
vn -0.1898 0.0598 -0.9800
vn 0.0209 0.7235 -0.6900
vn 0.6728 0.4143 -0.6130
vn -0.5068 -0.4634 0.7269
vn -0.2618 0.1542 0.9527
vn -0.2804 0.0747 0.9570
vn -0.5320 -0.5086 0.6770
vn -0.2618 0.1541 -0.9527
vn -0.5068 -0.4634 -0.7269
vn -0.5320 -0.5086 -0.6770
vn -0.2804 0.0747 -0.9570
vn -0.1516 0.6722 0.7247
vn -0.1423 0.7198 0.6795
vn -0.6627 -0.7489 -0.0000
vn -0.6627 -0.7489 -0.0001
vn 0.6728 0.4143 0.6130
vn 0.0209 0.7235 0.6900
vn -0.1898 0.0598 0.9800
vn 0.4173 -0.2053 0.8853
vn -0.2449 -0.9695 -0.0000
vn -0.8360 -0.5487 -0.0000
vn -0.6182 -0.3923 -0.6811
vn -0.0366 -0.8057 -0.5912
vn -0.6182 -0.3924 0.6811
vn -0.0366 -0.8057 0.5912
vn 0.7565 0.6540 0.0001
vn 0.1151 0.9933 -0.0000
vn 0.1151 0.9934 -0.0001
vn 0.7565 0.6540 -0.0000
vn -0.9734 0.2293 -0.0000
vn -0.8918 0.2945 -0.3434
vn -0.0754 0.1098 -0.9911
vn -0.1113 0.0354 -0.9932
vn 0.3449 0.6536 -0.6737
vn 0.3296 0.6424 -0.6919
vn -0.7700 0.4129 0.4864
vn -0.8918 0.2945 0.3434
vn -0.6417 0.7669 0.0001
vn -0.6912 0.6252 0.3624
vn -0.7700 0.4129 -0.4864
vn -0.6912 0.6252 -0.3624
vn -0.6417 0.7669 -0.0001
vn -0.4775 -0.8786 -0.0000
vn -0.4775 -0.8786 -0.0001
vn -0.3822 -0.6057 -0.6979
vn -0.3822 -0.6058 -0.6979
vn 0.3296 0.6424 0.6919
vn 0.3449 0.6536 0.6737
vn -0.1113 0.0354 0.9932
vn -0.0754 0.1098 0.9911
vn 0.5709 0.8210 -0.0000
vn -0.3822 -0.6057 0.6979
vn -0.8872 0.1605 -0.4325
vn -0.9972 0.0743 -0.0000
vn -0.8835 0.1637 -0.4388
vn -0.8872 0.1605 0.4325
vn -0.6905 0.3809 0.6149
vn -0.7013 0.3633 0.6133
vn -0.8835 0.1637 0.4388
vn -0.5758 0.6807 0.4528
vn -0.5139 0.8578 -0.0000
vn -0.5758 0.6807 -0.4528
vn -0.6905 0.3809 -0.6149
vn -0.7013 0.3633 -0.6133
vn -0.5139 0.8578 -0.0001
vn 0.2423 -0.7110 -0.6602
vn -0.0065 0.0055 -1.0000
vn 0.3786 -0.9256 -0.0000
vn 0.2423 -0.7110 0.6602
vn -0.0065 0.0054 1.0000
vn -0.1587 0.7078 0.6883
vn -0.1835 0.9830 -0.0000
vn -0.1587 0.7078 -0.6883
vn 0.0860 -0.1138 -0.9898
vn -0.4967 0.5465 -0.6743
vn -0.7081 0.7061 -0.0000
vn -0.4967 0.5465 0.6742
vn 0.0861 -0.1138 0.9898
vn 0.5431 -0.6123 0.5746
vn 0.6801 -0.7331 0.0001
vn 0.6801 -0.7331 -0.0001
vn 0.5431 -0.6123 -0.5746
vn 0.5481 0.8364 -0.0000
vn 0.5482 0.8364 -0.0000
vn 0.5482 0.8363 0.0001
vn 0.5481 0.8364 0.0001
vn -0.8815 0.4721 -0.0000
vn -0.8816 0.4721 -0.0000
vn -0.8816 0.4720 -0.0000
vt 0.103630 0.502188
vt 0.087871 0.465159
vt 0.049606 0.455174
vt 0.070605 0.500216
vt 0.007117 0.458806
vt 0.025223 0.503542
vt 0.263582 0.620543
vt 0.245476 0.665278
vt 0.287966 0.668911
vt 0.308964 0.623869
vt 0.326231 0.658926
vt 0.341989 0.621896
vt 0.372335 0.687639
vt 0.387569 0.636968
vt 0.416459 0.697990
vt 0.431284 0.638740
vt 0.376083 0.106395
vt 0.347827 0.139729
vt 0.378401 0.151788
vt 0.395183 0.121641
vt 0.192924 0.485345
vt 0.178100 0.426094
vt 0.133976 0.436445
vt 0.149209 0.487116
vt 0.031298 0.231904
vt 0.069651 0.252846
vt 0.073526 0.230780
vt 0.047766 0.216714
vt 0.685482 0.815051
vt 0.723716 0.836210
vt 0.727715 0.814166
vt 0.702035 0.799955
vt 0.069526 0.134544
vt 0.031292 0.155703
vt 0.047846 0.170799
vt 0.073526 0.156588
vt 0.659871 0.783752
vt 0.690243 0.773078
vt 0.685487 0.738850
vt 0.701955 0.754040
vt 0.005681 0.187002
vt 0.036054 0.197676
vt 0.723841 0.717908
vt 0.727715 0.739974
vt 0.219190 0.066196
vt 0.224036 0.095144
vt 0.226858 0.094671
vt 0.222012 0.065724
vt 0.983508 0.885649
vt 0.978662 0.914597
vt 0.981484 0.915069
vt 0.986329 0.886122
vt 0.223902 0.044346
vt 0.226721 0.044832
vt 0.228883 0.015421
vt 0.231703 0.015907
vt 0.228881 0.124091
vt 0.231703 0.123619
vt 0.973817 0.943545
vt 0.976638 0.944017
vt 0.978528 0.965394
vt 0.983510 0.994319
vt 0.986329 0.993833
vt 0.981348 0.964909
vt 0.967030 0.077422
vt 0.970640 0.077766
vt 0.976143 0.045847
vt 0.971857 0.044838
vt 0.259928 0.148445
vt 0.244040 0.199005
vt 0.289811 0.187443
vt 0.299290 0.156271
vt 0.325293 0.173941
vt 0.341180 0.224501
vt 0.380542 0.216675
vt 0.371063 0.185502
vt 0.266575 0.233216
vt 0.294831 0.266550
vt 0.313931 0.251304
vt 0.297149 0.221157
vt 0.271817 0.106395
vt 0.313931 0.125028
vt 0.353070 0.266550
vt 0.395183 0.247918
vt 0.973541 0.243784
vt 0.977543 0.242633
vt 0.970714 0.211876
vt 0.967030 0.212368
vt 0.985665 0.135843
vt 0.990082 0.134842
vt 0.976530 0.103989
vt 0.972822 0.105294
vt 0.976010 0.183060
vt 0.971872 0.181843
vt 0.985913 0.275984
vt 0.989932 0.275274
vt 0.988955 0.148009
vt 0.983999 0.147205
vt 0.988945 0.008280
vt 0.983560 0.007587
vt 0.994106 0.131010
vt 0.981150 0.102466
vt 0.428110 0.372535
vt 0.419068 0.371075
vt 0.420858 0.401294
vt 0.429969 0.400358
vt 0.976448 0.211108
vt 0.981061 0.184497
vt 0.994319 0.271521
vt 0.982456 0.241186
vt 0.975751 0.078250
vt 0.982036 0.047371
vt 0.994319 0.152606
vt 0.994106 0.012341
vt 0.430479 0.308105
vt 0.421354 0.308897
vt 0.422131 0.340057
vt 0.431284 0.340393
vt 0.792530 0.052473
vt 0.783419 0.051537
vt 0.781628 0.081756
vt 0.790670 0.080295
vt 0.422126 0.432437
vt 0.431284 0.432629
vt 0.793845 0.112437
vt 0.784691 0.112774
vt 0.783914 0.143933
vt 0.793039 0.144725
vt 0.793845 0.020201
vt 0.784687 0.020394
vt 0.591710 0.085795
vt 0.618820 0.101174
vt 0.620077 0.095491
vt 0.595943 0.081799
vt 0.096645 0.030111
vt 0.084888 0.058007
vt 0.090675 0.057383
vt 0.100878 0.034106
vt 0.097191 0.086645
vt 0.123460 0.103422
vt 0.125013 0.097812
vt 0.101628 0.082877
vt 0.592256 0.029261
vt 0.579953 0.057899
vt 0.585740 0.058523
vt 0.596692 0.033029
vt 0.123756 0.014732
vt 0.125013 0.020415
vt 0.618524 0.012484
vt 0.620077 0.018094
vt 0.153804 0.564323
vt 0.102484 0.561674
vt 0.192924 0.577143
vt 0.392163 0.559761
vt 0.431284 0.546941
vt 0.340844 0.562411
vt 0.313988 0.585711
vt 0.269025 0.596222
vt 0.075628 0.538373
vt 0.030666 0.527862
vt 0.095027 0.620042
vt 0.046240 0.607071
vt 0.005681 0.591408
vt 0.244040 0.532676
vt 0.284600 0.517014
vt 0.333386 0.504043
vt 0.351092 0.466787
vt 0.387089 0.443991
vt 0.148729 0.680093
vt 0.112733 0.657298
vt 0.739078 0.781016
vt 0.780062 0.764408
vt 0.750743 0.763056
vt 0.739127 0.810366
vt 0.800512 0.785461
vt 0.759541 0.831454
vt 0.800512 0.814812
vt 0.780423 0.836210
vt 0.721414 0.142965
vt 0.701947 0.095195
vt 0.702206 0.122941
vt 0.746767 0.144725
vt 0.718848 0.076215
vt 0.765975 0.124701
vt 0.746581 0.077110
vt 0.765975 0.096954
s 1
usemtl Cans
f 172/1/1 6/2/2 10/3/3
f 172/1/1 10/3/3 167/4/4
f 167/4/4 10/3/3 17/5/5
f 167/4/4 17/5/5 168/6/6
f 169/7/6 18/8/7 22/9/8
f 169/7/6 22/9/8 173/10/9
f 173/10/9 22/9/8 26/11/10
f 173/10/9 26/11/10 174/12/11
f 174/12/11 26/11/10 30/13/12
f 174/12/11 30/13/12 170/14/13
f 170/14/13 30/13/12 36/15/14
f 170/14/13 36/15/14 176/16/15
f 16/17/16 9/18/17 81/19/18
f 16/17/16 81/19/18 84/20/16
f 175/21/15 35/22/14 40/23/19
f 175/21/15 40/23/19 171/24/20
f 171/24/20 40/23/19 6/2/2
f 171/24/20 6/2/2 172/1/1
f 8/25/21 13/26/22 53/27/22
f 8/25/21 53/27/22 60/28/23
f 28/29/24 58/30/25 2/31/25
f 28/29/24 2/31/25 45/32/26
f 57/33/25 38/34/27 43/35/28
f 57/33/25 43/35/28 1/36/25
f 50/37/29 28/29/24 45/32/26
f 50/37/29 45/32/26 20/38/30
f 48/39/31 50/37/29 20/38/30
f 48/39/31 20/38/30 24/40/32
f 38/34/27 42/41/33 32/42/34
f 38/34/27 32/42/34 43/35/28
f 42/41/33 8/25/21 60/28/23
f 42/41/33 60/28/23 32/42/34
f 14/43/22 48/39/31 24/40/32
f 14/43/22 24/40/32 54/44/22
f 19/45/35 46/46/36 73/47/36
f 19/45/35 73/47/36 68/48/37
f 4/49/38 44/50/39 78/51/39
f 4/49/38 78/51/39 76/52/40
f 23/53/41 19/45/35 68/48/37
f 23/53/41 68/48/37 66/54/42
f 51/55/43 23/53/41 66/54/42
f 51/55/43 66/54/42 63/56/43
f 46/46/36 3/57/44 75/58/40
f 46/46/36 75/58/40 73/47/36
f 44/50/39 31/59/45 70/60/46
f 44/50/39 70/60/46 78/51/39
f 59/61/47 52/62/43 64/63/43
f 59/61/47 64/63/43 61/64/48
f 31/59/45 59/61/47 61/64/48
f 31/59/45 61/64/48 70/60/46
f 80/65/49 99/66/50 100/67/51
f 80/65/49 100/67/51 82/68/52
f 29/69/53 25/70/54 89/71/55
f 29/69/53 89/71/55 91/72/56
f 5/73/57 39/74/58 97/75/59
f 5/73/57 97/75/59 79/76/60
f 9/18/17 5/73/57 79/76/60
f 9/18/17 79/76/60 81/19/18
f 21/77/61 15/78/16 83/79/16
f 21/77/61 83/79/16 87/80/62
f 33/81/63 29/69/53 91/72/56
f 33/81/63 91/72/56 93/82/63
f 25/70/54 21/77/61 87/80/62
f 25/70/54 87/80/62 89/71/55
f 39/74/58 34/83/64 94/84/63
f 39/74/58 94/84/63 97/75/59
f 88/85/65 103/86/66 104/87/67
f 88/85/65 104/87/67 90/88/68
f 96/89/69 107/90/70 108/91/71
f 96/89/69 108/91/71 98/92/72
f 90/88/68 104/87/67 105/93/73
f 90/88/68 105/93/73 92/94/74
f 88/85/65 86/95/75 102/96/76
f 88/85/65 102/96/76 103/86/66
f 98/92/72 108/91/71 99/66/50
f 98/92/72 99/66/50 80/65/49
f 92/94/74 105/93/73 106/97/70
f 92/94/74 106/97/70 95/98/69
f 82/68/52 100/67/51 101/99/77
f 82/68/52 101/99/77 85/100/78
f 108/91/71 107/90/70 123/101/79
f 108/91/71 123/101/79 127/102/80
f 120/103/81 140/104/82 142/105/83
f 120/103/81 142/105/83 122/106/84
f 105/93/73 104/87/67 119/107/85
f 105/93/73 119/107/85 121/108/86
f 103/86/66 102/96/76 114/109/87
f 103/86/66 114/109/87 117/110/88
f 100/67/51 99/66/50 109/111/89
f 100/67/51 109/111/89 111/112/90
f 99/66/50 108/91/71 127/102/80
f 99/66/50 127/102/80 109/111/89
f 106/97/70 105/93/73 121/108/86
f 106/97/70 121/108/86 124/113/79
f 104/87/67 103/86/66 117/110/88
f 104/87/67 117/110/88 119/107/85
f 101/99/77 100/67/51 111/112/90
f 101/99/77 111/112/90 113/114/91
f 115/115/92 135/116/93 138/117/94
f 115/115/92 138/117/94 118/118/95
f 128/119/96 148/120/97 130/121/98
f 128/119/96 130/121/98 110/122/99
f 122/106/84 142/105/83 145/123/100
f 122/106/84 145/123/100 125/124/100
f 118/118/95 138/117/94 140/104/82
f 118/118/95 140/104/82 120/103/81
f 112/125/101 132/126/101 136/127/92
f 112/125/101 136/127/92 116/128/92
f 126/129/100 146/130/100 148/120/97
f 126/129/100 148/120/97 128/119/96
f 147/131/102 144/132/103 163/133/103
f 147/131/102 163/133/103 165/134/104
f 141/135/105 139/136/106 159/137/107
f 141/135/105 159/137/107 160/138/108
f 137/139/109 133/140/110 154/141/110
f 137/139/109 154/141/110 157/142/109
f 131/143/111 129/144/112 150/145/113
f 131/143/111 150/145/113 152/146/111
f 129/144/112 147/131/102 165/134/104
f 129/144/112 165/134/104 150/145/113
f 143/147/103 141/135/105 160/138/108
f 143/147/103 160/138/108 162/148/103
f 139/136/106 137/139/109 157/142/109
f 139/136/106 157/142/109 159/137/107
f 134/149/114 131/143/111 152/146/111
f 134/149/114 152/146/111 155/150/114
f 110/122/99 130/121/98 132/126/101
f 110/122/99 132/126/101 112/125/101
f 181/151/115 171/24/20 172/1/1
f 181/151/115 172/1/1 186/152/116
f 184/153/117 175/21/15 171/24/20
f 184/153/117 171/24/20 181/151/115
f 180/154/118 170/14/13 176/16/15
f 180/154/118 176/16/15 185/155/117
f 183/156/119 174/12/11 170/14/13
f 183/156/119 170/14/13 180/154/118
f 182/157/120 173/10/9 174/12/11
f 182/157/120 174/12/11 183/156/119
f 179/158/121 169/7/6 173/10/9
f 179/158/121 173/10/9 182/157/120
f 177/159/122 167/4/4 168/6/6
f 177/159/122 168/6/6 178/160/121
f 186/152/116 172/1/1 167/4/4
f 186/152/116 167/4/4 177/159/122
f 41/161/123 186/152/116 177/159/122
f 41/161/123 177/159/122 7/162/124
f 7/162/124 177/159/122 178/160/121
f 7/162/124 178/160/121 11/163/125
f 12/164/125 179/158/121 182/157/120
f 12/164/125 182/157/120 47/165/126
f 47/165/126 182/157/120 183/156/119
f 47/165/126 183/156/119 49/166/127
f 49/166/127 183/156/119 180/154/118
f 49/166/127 180/154/118 27/167/128
f 27/167/128 180/154/118 185/155/117
f 27/167/128 185/155/117 56/168/129
f 55/169/130 184/153/117 181/151/115
f 55/169/130 181/151/115 37/170/131
f 37/170/131 181/151/115 186/152/116
f 37/170/131 186/152/116 41/161/123
f 62/171/132 77/172/133 71/173/132
f 77/172/133 62/171/132 65/174/133
f 77/172/133 65/174/133 74/175/134
f 74/175/134 65/174/133 67/176/132
f 74/175/134 67/176/132 72/177/135
f 72/177/135 67/176/132 69/178/133
f 161/179/136 166/180/137 164/181/136
f 166/180/137 161/179/136 158/182/137
f 166/180/137 158/182/137 149/183/137
f 149/183/137 158/182/137 156/184/138
f 149/183/137 156/184/138 151/185/138
f 151/185/138 156/184/138 153/186/137
o Object_6
v -0.014907 0.030245 0.108794
v -0.014907 0.030245 0.108794
v -0.014907 0.030245 0.108794
v -0.014907 0.030245 0.108794
v -0.033849 0.033578 0.059162
v -0.033849 0.033578 0.059162
v -0.033849 0.033578 0.059162
v -0.033849 0.033578 0.059162
v -0.014907 0.002231 0.108794
v -0.014907 0.002231 0.108794
v -0.014907 0.002231 0.108794
v -0.033849 0.001538 0.059162
v -0.033849 0.001538 0.059162
v -0.033849 0.001538 0.059162
v 0.008052 -0.000000 0.116576
v 0.008052 -0.000000 0.116576
v -0.021912 0.033578 0.038062
v -0.021912 0.033578 0.038062
v -0.021912 0.000000 0.038062
v -0.021912 0.000000 0.038062
v 0.008052 0.030224 0.116576
v 0.008052 0.030224 0.116576
v -0.013517 0.030245 0.106096
v -0.013517 0.030245 0.106096
v -0.013517 0.030245 0.106096
v -0.013517 0.030245 0.106096
v -0.031014 0.033578 0.060248
v -0.031014 0.033578 0.060248
v -0.031014 0.033578 0.060248
v -0.031014 0.033578 0.060248
v -0.019988 0.033578 0.040757
v -0.019988 0.033578 0.040757
v 0.007692 0.030224 0.113284
v 0.007692 0.030224 0.113284
v -0.012397 0.028746 0.104018
v -0.012397 0.028746 0.104018
v -0.012397 0.028746 0.104018
v -0.028795 0.032079 0.061051
v -0.028795 0.032079 0.061051
v -0.028795 0.032079 0.061051
v -0.013327 0.023649 0.105683
v -0.013327 0.023649 0.105683
v -0.013327 0.023649 0.105683
v -0.030598 0.026981 0.060429
v -0.030598 0.026981 0.060429
v -0.030598 0.026981 0.060429
v -0.017923 0.032079 0.044196
v -0.017923 0.032079 0.044196
v -0.017923 0.032079 0.044196
v -0.017923 0.032079 0.044196
v 0.006940 0.028725 0.109344
v 0.006940 0.028725 0.109344
v 0.006940 0.028725 0.109344
v 0.006940 0.028725 0.109344
v -0.013327 0.004644 0.105683
v -0.013327 0.004644 0.105683
v -0.013327 0.004644 0.105683
v -0.030598 0.003951 0.060429
v -0.030598 0.003951 0.060429
v -0.030598 0.003951 0.060429
v -0.018660 0.030580 0.043954
v -0.018660 0.030580 0.043954
v -0.018660 0.030580 0.043954
v -0.018660 0.030580 0.043954
v 0.006551 0.027226 0.110015
v 0.006551 0.027226 0.110015
v 0.006551 0.027226 0.110015
v 0.006551 0.027226 0.110015
v -0.018258 0.002413 0.045009
v -0.018258 0.002413 0.045009
v 0.006149 0.002413 0.108960
v 0.006149 0.002413 0.108960
v 0.117604 0.033578 0.058223
v 0.117604 0.033578 0.058223
v 0.117604 0.033578 0.058223
v 0.117604 0.033578 0.058223
v 0.098662 0.033578 0.008590
v 0.098662 0.033578 0.008590
v 0.098662 0.033578 0.008590
v 0.098662 0.033578 0.008590
v 0.117604 -0.000000 0.058223
v 0.117604 -0.000000 0.058223
v 0.117604 -0.000000 0.058223
v 0.098662 0.001792 0.008590
v 0.098662 0.001792 0.008590
v 0.098662 0.001792 0.008590
v 0.103450 -0.000000 0.073515
v 0.103450 -0.000000 0.073515
v 0.076487 0.033578 0.002864
v 0.076487 0.033578 0.002864
v 0.075703 0.000000 0.000808
v 0.075703 0.000000 0.000808
v 0.105667 0.031197 0.079322
v 0.105667 0.031197 0.079322
v 0.114769 0.033578 0.057137
v 0.114769 0.033578 0.057137
v 0.114769 0.033578 0.057137
v 0.114769 0.033578 0.057137
v 0.097272 0.033578 0.011289
v 0.097272 0.033578 0.011289
v 0.097272 0.033578 0.011289
v 0.097272 0.033578 0.011289
v 0.076848 0.033578 0.006156
v 0.076848 0.033578 0.006156
v 0.103743 0.031197 0.076627
v 0.103743 0.031197 0.076627
v 0.112550 0.032079 0.056334
v 0.112550 0.032079 0.056334
v 0.112550 0.032079 0.056334
v 0.112550 0.032079 0.056334
v 0.096152 0.032079 0.013366
v 0.096152 0.032079 0.013366
v 0.096152 0.032079 0.013366
v 0.096152 0.032079 0.013366
v 0.114353 0.030580 0.056955
v 0.114353 0.030580 0.056955
v 0.114353 0.030580 0.056955
v 0.114353 0.030580 0.056955
v 0.097082 0.030580 0.011701
v 0.097082 0.030580 0.011701
v 0.097082 0.030580 0.011701
v 0.097082 0.030580 0.011701
v 0.077061 0.032079 0.008686
v 0.077061 0.032079 0.008686
v 0.102216 0.029698 0.074599
v 0.102216 0.029698 0.074599
v 0.114353 0.002413 0.056955
v 0.114353 0.002413 0.056955
v 0.114353 0.002413 0.056955
v 0.097082 0.004205 0.011701
v 0.097082 0.004205 0.011701
v 0.097082 0.004205 0.011701
v 0.076934 0.030580 0.006662
v 0.076934 0.030580 0.006662
v 0.103469 0.028199 0.076193
v 0.103469 0.028199 0.076193
v 0.076149 0.002413 0.004606
v 0.076149 0.002413 0.004606
v 0.101253 0.002413 0.070385
v 0.101253 0.002413 0.070385
v 0.054409 0.063929 0.025372
v 0.054409 0.063929 0.025372
v 0.054409 0.063929 0.025372
v 0.057515 0.066548 0.033391
v 0.057515 0.066548 0.033391
v 0.058268 0.067488 0.032074
v 0.058268 0.067488 0.032074
v 0.070396 0.066548 0.067142
v 0.070396 0.066548 0.067142
v 0.073422 0.063929 0.075192
v 0.073422 0.063929 0.075192
v 0.073422 0.063929 0.075192
v 0.055542 0.064727 0.024779
v 0.055542 0.064727 0.024779
v 0.055542 0.064727 0.024779
v 0.074662 0.064727 0.074878
v 0.074662 0.064727 0.074878
v 0.074662 0.064727 0.074878
v 0.071835 0.067488 0.067622
v 0.071835 0.067488 0.067622
v 0.056847 0.043337 0.028367
v 0.073245 0.039815 0.071333
v 0.078301 0.041506 0.079134
v 0.078301 0.041506 0.079134
v 0.060057 0.035744 0.033276
v 0.072368 0.035744 0.065534
v 0.055421 0.041506 0.019180
v 0.055421 0.041506 0.019180
v 0.079654 0.040738 0.079013
v 0.079654 0.040738 0.079013
v 0.056510 0.040738 0.018370
v 0.056510 0.040738 0.018370
v 0.016578 0.047256 0.056886
v 0.023554 0.039518 0.077757
v 0.020314 0.046185 0.036680
v 0.020314 0.046185 0.036680
v 0.040271 0.041374 0.090136
v 0.040271 0.041374 0.090136
v 0.024214 0.044343 0.076895
v 0.040337 0.042873 0.089146
v 0.040337 0.042873 0.089146
v 0.015511 0.039518 0.056683
v 0.019605 0.044686 0.035986
v 0.019605 0.044686 0.035986
v 0.079608 0.054348 0.068906
v 0.082511 0.055688 0.079051
v 0.082511 0.055688 0.079051
v 0.065873 0.055163 0.023612
v 0.059676 0.056441 0.015574
v 0.059676 0.056441 0.015574
v 0.063210 0.054348 0.025938
v 0.083143 0.055163 0.068866
v 0.058615 0.055688 0.016438
v 0.058615 0.055688 0.016438
v 0.083878 0.056441 0.078989
v 0.083878 0.056441 0.078989
vn 0.0113 0.8852 0.4650
vn 0.0065 0.8841 0.4672
vn -0.4031 0.8339 0.3770
vn -0.3407 0.8433 0.4155
vn -0.7003 -0.0000 0.7138
vn -0.9964 -0.0000 -0.0846
vn -0.9963 -0.0000 -0.0863
vn -0.6854 -0.0000 0.7282
vn -0.6422 0.0178 -0.7663
vn -0.6480 0.0174 -0.7614
vn -0.0000 1.0000 -0.0000
vn -0.0344 0.9986 0.0392
vn -0.0377 0.9983 0.0438
vn -0.0037 1.0000 0.0016
vn -0.0043 1.0000 0.0018
vn 0.0086 0.9997 0.0226
vn 0.0092 0.9997 0.0227
vn 0.0137 0.9993 0.0349
vn 0.0133 0.9993 0.0348
vn -0.6853 -0.0000 0.7282
vn 0.0443 -0.0554 0.9975
vn 0.0340 -0.0540 0.9980
vn 0.6283 -0.0934 0.7723
vn 0.6201 -0.0938 0.7789
vn -0.5783 0.8148 0.0408
vn -0.3486 0.8885 -0.2986
vn -0.3437 0.8894 -0.3013
vn -0.5676 0.8232 -0.0153
vn 0.4151 0.8562 -0.3076
vn 0.5330 0.8461 0.0054
vn 0.4954 0.8656 0.0725
vn 0.3516 0.8718 -0.3410
vn -0.0274 0.9990 0.0344
vn -0.0403 0.9979 0.0507
vn -0.0295 0.9085 -0.4169
vn 0.0003 0.9070 -0.4210
vn 0.4150 0.8562 -0.3077
vn 0.3516 0.8719 -0.3410
vn 0.9567 0.1386 -0.2558
vn 0.8839 0.1386 -0.4467
vn 0.6804 0.6571 -0.3243
vn 0.7235 0.6571 -0.2115
vn 0.2793 0.9071 0.3148
vn 0.2562 0.9084 0.3303
vn -0.9387 -0.0835 0.3343
vn -0.9440 -0.1077 0.3119
vn -0.7566 -0.6216 0.2029
vn -0.7745 -0.5740 0.2658
vn -0.9268 -0.0735 0.3684
vn -0.7546 -0.5740 0.3178
vn 0.9828 0.0115 0.1842
vn 0.6295 0.0129 -0.7769
vn 0.6300 0.0129 -0.7765
vn 0.9873 0.0110 0.1588
vn 0.2774 -0.6289 0.7263
vn 0.0657 -0.7264 0.6841
vn 0.0654 -0.7265 0.6840
vn 0.6042 -0.0005 0.7968
vn 0.0660 -0.0268 0.9975
vn 0.0463 -0.0272 0.9986
vn 0.5936 -0.0014 0.8048
vn -0.3889 -0.7277 -0.5650
vn -0.3789 -0.7212 -0.5800
vn -0.2557 -0.6287 -0.7344
vn -0.2556 -0.6287 -0.7344
vn -0.1035 0.0906 -0.9905
vn -0.0919 0.0880 -0.9919
vn 0.0406 0.9990 -0.0180
vn 0.0396 0.9991 -0.0176
vn 0.1007 0.9939 -0.0447
vn -0.0193 0.9997 0.0141
vn -0.0462 0.9984 0.0338
vn -0.0463 0.9984 0.0338
vn -0.0169 0.9998 0.0123
vn 0.0420 -0.9986 -0.0307
vn 0.0170 -0.9998 -0.0124
vn 0.0151 -0.9998 -0.0110
vn -0.6007 0.1253 -0.7896
vn -0.6104 0.1243 -0.7823
vn -0.0920 -0.9949 0.0405
vn -0.0331 -0.9993 0.0146
vn -0.0340 -0.9993 0.0150
vn 0.9932 -0.0437 0.1082
vn 0.9903 -0.0456 0.1310
vn 0.6757 0.0151 -0.7370
vn 0.6802 0.0149 -0.7329
vn -0.0448 0.0315 -0.9985
vn -0.0280 0.0313 -0.9991
vn 0.6801 0.0149 -0.7329
vn 0.6757 0.0151 -0.7371
vn 0.9932 -0.0436 0.1083
vn -0.3408 0.8433 0.4155
vn -0.4032 0.8339 0.3770
vn -0.5783 0.8148 0.0409
vn -0.5676 0.8232 -0.0152
vn -0.0274 0.9990 0.0345
vn -0.4533 -0.7767 0.4373
vn -0.3941 -0.7858 0.4766
vn -0.5981 -0.7916 -0.1251
vn -0.6265 -0.7790 -0.0245
vn -0.3940 -0.7858 0.4766
vn -0.5981 -0.7916 -0.1252
vn -0.6787 -0.0179 0.7342
vn -0.6738 -0.0166 0.7388
vn -0.9892 0.0553 -0.1361
vn -0.9925 0.0526 -0.1107
vn -0.6738 -0.0182 0.7387
vn -0.9925 0.0527 -0.1107
vn -0.9892 0.0553 -0.1360
vn -0.6223 0.7695 0.1436
vn -0.5598 0.7695 0.3075
vn -0.5361 0.7560 0.3757
vn -0.6501 0.7559 0.0771
vn -0.6777 0.7353 -0.0002
vn -0.5052 0.7354 0.4517
vn -0.5052 0.7353 0.4517
vn -0.9288 -0.0851 0.3608
vn -0.6994 -0.6216 0.3529
vn 0.9706 0.1583 -0.1812
vn 0.7172 0.6913 -0.0880
vn 0.8446 0.1583 -0.5115
vn 0.5934 0.6913 -0.4122
vn 0.0022 0.1536 0.9881
vn -0.0233 0.2183 0.9756
vn -0.0800 0.3597 0.9296
vn -0.6673 0.2183 -0.7121
vn -0.6566 0.1536 -0.7384
vn -0.6791 0.3596 -0.6399
vn -0.3311 0.4457 -0.8317
vn -0.3335 0.4593 -0.8233
vn -0.4661 0.2945 -0.8343
vn -0.5606 0.1159 -0.8200
vn 0.2748 0.4491 0.8502
vn 0.2961 0.4376 0.8490
vn 0.1217 0.1260 0.9845
vn 0.1789 0.2799 0.9432
vn 0.1142 -0.9874 -0.1092
vn -0.0521 -0.9741 -0.2201
vn 0.4794 -0.7452 -0.4636
vn 0.3807 -0.8740 -0.3020
vn 0.0975 -0.9918 0.0828
vn 0.1378 -0.9878 -0.0722
vn 0.4798 -0.8748 -0.0677
vn 0.6645 -0.7466 -0.0323
vn -0.0898 0.9886 -0.1210
vn -0.1455 0.9892 0.0151
vn -0.4601 0.8733 0.1603
vn -0.5661 0.8134 0.1337
vn -0.0856 0.9803 0.1779
vn -0.4224 0.8898 0.1728
vn -0.0162 0.9959 0.0891
vn -0.6226 0.7538 0.2100
vn 0.2592 -0.9485 -0.1821
vn 0.2757 -0.9523 -0.1310
vn -0.2215 0.9366 0.2715
vn -0.1430 0.9194 0.3664
vn -0.3109 0.9491 0.0497
vn -0.3463 0.9238 -0.1632
vn 0.2448 -0.9419 -0.2299
vn 0.2868 -0.9527 -0.1009
vn 0.3286 0.4192 0.8463
vn -0.3267 0.4217 -0.8458
vn 0.4954 0.8656 0.0726
vt 0.410487 0.085552
vt 0.414770 0.086635
vt 0.429548 0.061151
vt 0.426451 0.058328
vt 0.048704 0.123182
vt 0.053698 0.043566
vt 0.005681 0.043566
vt 0.006720 0.123182
vt 0.806204 0.272158
vt 0.808741 0.308473
vt 0.856757 0.308167
vt 0.856525 0.271837
vt 0.934270 0.246741
vt 0.937568 0.092665
vt 0.932766 0.091411
vt 0.929469 0.247996
vt 0.206427 0.651912
vt 0.211229 0.650659
vt 0.211273 0.496576
vt 0.206472 0.495320
vt 0.683450 0.155999
vt 0.683450 0.076226
vt 0.680056 0.079254
vt 0.680057 0.152969
vt 0.883372 0.765064
vt 0.880155 0.801406
vt 0.925450 0.801249
vt 0.925356 0.764919
vt 0.880698 0.958267
vt 0.928369 0.957813
vt 0.952633 0.275984
vt 0.955668 0.272596
vt 0.962454 0.991466
vt 0.945988 0.964433
vt 0.941717 0.965564
vt 0.959385 0.994319
vt 0.136375 0.031859
vt 0.136576 0.100964
vt 0.139970 0.103422
vt 0.139970 0.029707
vt 0.229644 0.467338
vt 0.232678 0.470727
vt 0.070137 0.046601
vt 0.070137 0.120147
vt 0.073526 0.123182
vt 0.073526 0.043566
vt 0.939731 0.811493
vt 0.946079 0.812441
vt 0.962454 0.787234
vt 0.959436 0.784327
vt 0.666752 0.436864
vt 0.599189 0.435779
vt 0.604401 0.459036
vt 0.660411 0.460835
vt 0.412881 0.238595
vt 0.406545 0.239613
vt 0.775038 0.673062
vt 0.759284 0.674194
vt 0.768231 0.691339
vt 0.781263 0.695363
vt 0.845191 0.675990
vt 0.836233 0.697990
vt 0.332130 0.095033
vt 0.327136 0.022441
vt 0.298654 0.022441
vt 0.297615 0.095033
vt 0.983418 0.516199
vt 0.970372 0.669424
vt 0.974101 0.668813
vt 0.985702 0.517285
vt 0.875861 0.089116
vt 0.874483 0.243008
vt 0.916824 0.243255
vt 0.918106 0.089481
vt 0.967752 0.317041
vt 0.964013 0.316494
vt 0.981362 0.469359
vt 0.983612 0.468203
vt 0.912312 0.059064
vt 0.877800 0.059491
vt 0.928532 0.480721
vt 0.921793 0.510937
vt 0.959009 0.511706
vt 0.956986 0.481988
vt 0.745888 0.672565
vt 0.643326 0.670437
vt 0.657787 0.696365
vt 0.730368 0.697990
vt 0.745888 0.518757
vt 0.734666 0.492977
vt 0.662042 0.491351
vt 0.640394 0.516567
vt 0.465765 0.248046
vt 0.451962 0.276057
vt 0.568591 0.276057
vt 0.545426 0.247940
vt 0.916233 0.664683
vt 0.955977 0.665485
vt 0.465803 0.460835
vt 0.545426 0.460725
vt 0.568591 0.432642
vt 0.442646 0.432642
vt 0.157506 0.124091
vt 0.207828 0.124091
vt 0.205143 0.044475
vt 0.157506 0.044475
vt 0.805207 0.115576
vt 0.855635 0.115220
vt 0.856757 0.080916
vt 0.809145 0.079360
vt 0.878288 0.989401
vt 0.928369 0.994319
vt 0.955668 0.066811
vt 0.952633 0.063423
vt 0.977312 0.800741
vt 0.973817 0.803052
vt 0.973817 0.871976
vt 0.977312 0.874287
vt 0.229631 0.680093
vt 0.232678 0.676715
vt 0.973817 0.787545
vt 0.976956 0.789379
vt 0.976956 0.716787
vt 0.973817 0.718621
vt 0.982733 0.697990
vt 0.985702 0.695891
vt 0.983612 0.289649
vt 0.980607 0.287603
vt 0.244040 0.095033
vt 0.283568 0.095033
vt 0.286253 0.022441
vt 0.244040 0.022441
vt 0.878612 0.275984
vt 0.918106 0.274355
vt 0.917043 0.697990
vt 0.959009 0.693438
vt 0.682309 0.235023
vt 0.682309 0.180882
vt 0.680056 0.179441
vt 0.680056 0.236464
vt 0.685012 0.248221
vt 0.682777 0.248544
vt 0.685012 0.167683
vt 0.682777 0.167361
vt 0.861251 0.679643
vt 0.849774 0.695592
vt 0.681736 0.438802
vt 0.672640 0.456801
vt 0.584578 0.437067
vt 0.592785 0.454752
vt 0.549844 0.234237
vt 0.549793 0.236578
vt 0.568591 0.231142
vt 0.568364 0.228894
vt 0.934077 0.337897
vt 0.934038 0.340239
vt 0.952338 0.346295
vt 0.952650 0.344057
vt 0.948161 0.407143
vt 0.950300 0.405504
vt 0.918203 0.355755
vt 0.916233 0.354495
vt 0.564695 0.167501
vt 0.562606 0.165799
vt 0.532605 0.219301
vt 0.534622 0.218119
vt 0.616509 0.332532
vt 0.587739 0.350617
vt 0.587140 0.412387
vt 0.609881 0.406458
vt 0.678553 0.351173
vt 0.651630 0.332828
vt 0.657394 0.406860
vt 0.680109 0.413549
vt 0.853336 0.595521
vt 0.827102 0.580668
vt 0.847337 0.655443
vt 0.862216 0.657018
vt 0.795391 0.580381
vt 0.775800 0.649718
vt 0.769573 0.595592
vt 0.762233 0.652433
vt 0.673641 0.259906
vt 0.597805 0.259906
vt 0.775520 0.512216
vt 0.757250 0.535519
vt 0.843661 0.512216
vt 0.863121 0.535003
vt 0.690585 0.287277
vt 0.579953 0.286366
vt 0.568591 0.105407
vt 0.566854 0.103568
vt 0.950863 0.469359
vt 0.952650 0.467568
vt 0.426562 0.266550
vt 0.429548 0.263610
s 1
usemtl Cans
f 289/187/139 310/188/140 299/189/141
f 289/187/139 299/189/141 285/190/142
f 187/191/143 192/192/144 199/193/145
f 187/191/143 199/193/145 195/194/146
f 205/195/147 198/196/145 191/197/144
f 205/195/147 191/197/144 203/198/148
s 0
f 217/199/149 290/200/149 275/201/149
f 217/199/149 275/201/149 204/202/149
s 1
f 279/203/150 292/204/151 219/205/152
f 279/203/150 219/205/152 208/206/153
f 193/207/154 189/208/155 209/209/156
f 193/207/154 209/209/156 213/210/157
f 196/211/158 201/212/159 207/213/160
f 196/211/158 207/213/160 188/214/143
f 274/215/161 280/216/162 207/213/160
f 274/215/161 207/213/160 201/212/159
f 204/202/149 194/217/154 214/218/157
f 204/202/149 214/218/157 217/199/149
f 295/219/163 311/220/164 291/221/165
f 295/219/163 291/221/165 281/222/166
f 222/223/167 225/224/168 215/225/169
f 222/223/167 215/225/169 211/226/170
f 190/227/155 208/206/153 219/205/152
f 190/227/155 219/205/152 210/228/156
f 288/229/149 284/230/171 260/231/172
f 288/229/149 260/231/172 264/232/149
f 220/233/173 240/234/174 223/235/175
f 220/233/173 223/235/175 212/236/176
f 378/237/177 374/238/178 333/239/179
f 378/237/177 333/239/179 346/240/180
f 236/241/181 310/188/140 289/187/139
f 236/241/181 289/187/139 218/242/182
f 371/243/183 372/244/184 336/245/185
f 371/243/183 336/245/185 334/246/186
f 377/247/187 371/243/183 334/246/186
f 377/247/187 334/246/186 330/248/188
f 231/249/189 229/250/190 242/251/191
f 231/249/189 242/251/191 245/252/192
f 248/253/193 320/254/194 309/255/195
f 248/253/193 309/255/195 235/256/193
f 256/257/196 323/258/197 319/259/198
f 256/257/196 319/259/198 249/260/199
f 312/261/200 322/262/201 252/263/202
f 312/261/200 252/263/202 239/264/203
f 249/260/199 232/265/189 246/266/192
f 249/260/199 246/266/192 256/257/196
f 228/267/190 253/268/204 258/269/205
f 228/267/190 258/269/205 243/270/191
f 257/271/206 255/272/207 244/273/208
f 257/271/206 244/273/208 241/274/208
f 326/275/209 315/276/210 318/277/211
f 326/275/209 318/277/211 324/278/212
f 267/279/213 273/280/214 277/281/215
f 267/279/213 277/281/215 270/282/213
f 321/283/216 325/284/217 258/269/205
f 321/283/216 258/269/205 253/268/204
f 197/285/218 200/286/218 206/287/219
f 197/285/218 206/287/219 202/288/220
f 261/289/221 268/290/222 272/291/223
f 261/289/221 272/291/223 266/292/224
f 278/293/225 276/294/226 265/295/227
f 278/293/225 265/295/227 271/296/228
f 202/288/220 206/287/219 277/281/215
f 202/288/220 277/281/215 273/280/214
f 269/297/222 262/298/229 280/216/162
f 269/297/222 280/216/162 274/215/161
s 0
f 275/201/149 290/200/149 287/299/149
f 275/201/149 287/299/149 263/300/149
s 1
f 286/301/230 300/302/231 296/303/232
f 286/301/230 296/303/232 282/304/233
f 259/305/172 283/306/234 292/204/151
f 259/305/172 292/204/151 279/203/150
f 291/221/165 311/220/164 240/234/174
f 291/221/165 240/234/174 220/233/173
f 298/307/235 308/308/236 304/309/237
f 298/307/235 304/309/237 294/310/238
f 309/255/195 320/254/194 307/311/239
f 309/255/195 307/311/239 297/312/235
f 293/313/238 303/314/240 322/262/201
f 293/313/238 322/262/201 312/261/200
f 306/315/241 317/316/242 313/317/243
f 306/315/241 313/317/243 301/318/244
f 319/259/198 323/258/197 316/319/245
f 319/259/198 316/319/245 305/320/241
f 302/321/246 314/322/247 325/284/217
f 302/321/246 325/284/217 321/283/216
f 326/275/209 324/278/212 255/272/207
f 326/275/209 255/272/207 257/271/206
f 203/198/148 276/294/226 278/293/225
f 203/198/148 278/293/225 205/195/147
f 331/323/248 335/324/249 345/325/250
f 331/323/248 345/325/250 332/326/251
f 328/327/252 331/323/248 332/326/251
f 328/327/252 332/326/251 339/328/252
f 335/324/249 337/329/253 342/330/254
f 335/324/249 342/330/254 345/325/250
f 379/331/255 377/247/187 330/248/188
f 379/331/255 330/248/188 327/332/256
f 382/333/257 378/237/177 346/240/180
f 382/333/257 346/240/180 344/334/258
f 374/238/178 376/335/259 341/336/260
f 374/238/178 341/336/260 333/239/179
f 373/337/261 381/338/262 343/339/263
f 373/337/261 343/339/263 338/340/263
f 375/341/264 380/342/265 329/343/266
f 375/341/264 329/343/266 340/344/266
f 369/345/267 362/346/268 354/347/269
f 369/345/267 354/347/269 357/348/270
f 367/349/271 363/350/272 355/351/273
f 367/349/271 355/351/273 350/352/274
f 368/353/275 370/354/276 358/355/277
f 368/353/275 358/355/277 351/356/278
f 364/357/279 360/358/280 352/359/281
f 364/357/279 352/359/281 356/360/282
f 361/361/283 359/362/284 347/363/285
f 361/361/283 347/363/285 353/364/286
f 359/362/284 365/365/287 348/366/288
f 359/362/284 348/366/288 347/363/285
f 365/365/287 366/367/289 349/368/290
f 365/365/287 349/368/290 348/366/288
f 360/358/280 368/353/275 351/356/278
f 360/358/280 351/356/278 352/359/281
f 227/369/291 230/370/292 368/353/275
f 227/369/291 368/353/275 360/358/280
f 221/371/293 237/372/294 366/367/289
f 221/371/293 366/367/289 365/365/287
f 224/373/295 221/371/293 365/365/287
f 224/373/295 365/365/287 359/362/284
f 233/374/296 224/373/295 359/362/284
f 233/374/296 359/362/284 361/361/283
f 254/375/297 227/369/291 360/358/280
f 254/375/297 360/358/280 364/357/279
f 230/370/292 250/376/298 370/354/276
f 230/370/292 370/354/276 368/353/275
f 238/377/299 251/378/299 363/350/272
f 238/377/299 363/350/272 367/349/271
f 247/379/300 234/380/300 362/346/268
f 247/379/300 362/346/268 369/345/267
f 357/348/270 354/347/269 380/342/265
f 357/348/270 380/342/265 375/341/264
f 350/352/274 355/351/273 381/338/262
f 350/352/274 381/338/262 373/337/261
f 351/356/278 358/355/277 376/335/259
f 351/356/278 376/335/259 374/238/178
f 356/360/282 352/359/281 378/237/177
f 356/360/282 378/237/177 382/333/257
f 353/364/286 347/363/285 377/247/187
f 353/364/286 377/247/187 379/331/255
f 347/363/285 348/366/288 371/243/183
f 347/363/285 371/243/183 377/247/187
f 348/366/288 349/368/290 372/244/184
f 348/366/288 372/244/184 371/243/183
f 352/359/281 351/356/278 374/238/178
f 352/359/281 374/238/178 378/237/177
f 218/242/182 216/381/301 226/382/168
f 218/242/182 226/382/168 236/241/181
o Object_8
v -0.091250 0.166566 -0.136834
v -0.103750 0.077583 -0.174144
v -0.074273 0.167127 -0.137434
v -0.132939 0.077583 -0.138423
v -0.061971 0.178305 -0.131541
v -0.061971 0.178305 -0.131541
v -0.126570 0.077583 -0.097146
v -0.061864 0.194049 -0.122138
v -0.061864 0.194049 -0.122138
v -0.103758 0.077583 -0.074493
v -0.103758 0.077583 -0.074493
v -0.074891 0.198533 -0.106809
v -0.074891 0.198533 -0.106809
v -0.062481 0.077583 -0.067954
v -0.091194 0.197952 -0.106192
v -0.091194 0.197952 -0.106192
v -0.039732 0.056137 -0.097139
v -0.104098 0.192616 -0.120835
v -0.104098 0.192616 -0.120835
v -0.039730 0.056137 -0.138415
v -0.039730 0.056137 -0.138415
v -0.104018 0.184581 -0.135038
v -0.104018 0.184581 -0.135038
v -0.062474 0.077583 -0.167604
v -0.074316 0.172897 -0.150396
v -0.074316 0.172897 -0.150396
v -0.091205 0.172333 -0.149795
v -0.091205 0.172333 -0.149795
v -0.062078 0.184032 -0.144549
v -0.062078 0.184032 -0.144549
v -0.061970 0.199715 -0.135205
v -0.061970 0.199715 -0.135205
v -0.074939 0.204150 -0.119921
v -0.074939 0.204150 -0.119921
v -0.091147 0.203567 -0.119300
v -0.091147 0.203567 -0.119300
v -0.103992 0.198275 -0.133897
v -0.103992 0.198275 -0.133897
v -0.103911 0.190300 -0.148042
v -0.103911 0.190300 -0.148042
v -0.062474 0.003814 -0.167604
v -0.062474 0.003814 -0.167604
v -0.062474 0.151352 -0.167604
v -0.062474 0.151352 -0.167604
v -0.037500 0.003814 -0.138415
v -0.037500 0.003814 -0.138415
v -0.037500 0.003814 -0.138415
v -0.037500 0.003814 -0.138415
v -0.039806 0.151352 -0.138415
v -0.039806 0.151352 -0.138415
v -0.039806 0.151352 -0.138415
v -0.039806 0.151352 -0.138415
v -0.033292 0.003814 -0.097139
v -0.033292 0.003814 -0.097139
v -0.033292 0.151352 -0.097139
v -0.033292 0.151352 -0.097139
v -0.062481 0.003814 -0.067954
v -0.062481 0.003814 -0.067954
v -0.062481 0.151352 -0.067954
v -0.062481 0.151352 -0.067954
v -0.103758 0.003814 -0.072451
v -0.103758 0.003814 -0.072451
v -0.103758 0.003814 -0.072451
v -0.103758 0.003814 -0.072451
v -0.103758 0.151352 -0.072586
v -0.103758 0.151352 -0.072586
v -0.103758 0.151352 -0.072586
v -0.103758 0.151352 -0.072586
v -0.132943 0.003814 -0.097146
v -0.132943 0.003814 -0.097146
v -0.132943 0.151352 -0.097146
v -0.132943 0.151352 -0.097146
v -0.127211 0.003814 -0.138423
v -0.127211 0.003814 -0.138423
v -0.132939 0.151352 -0.138423
v -0.132939 0.151352 -0.138423
v -0.103750 0.003814 -0.167607
v -0.103750 0.003814 -0.167607
v -0.103750 0.151352 -0.167607
v -0.103750 0.151352 -0.167607
v -0.061791 0.001937 -0.169251
v -0.035854 0.001937 -0.139097
v -0.035854 0.001937 -0.139097
v -0.031646 0.001937 -0.096457
v -0.061799 0.001937 -0.066308
v -0.104440 0.001937 -0.070805
v -0.104440 0.001937 -0.070805
v -0.134588 0.001937 -0.096464
v -0.128858 0.001937 -0.139105
v -0.104433 0.001937 -0.169254
v -0.130073 0.077608 -0.137235
v -0.102564 0.077608 -0.171278
v -0.042595 0.056162 -0.137228
v -0.042595 0.056162 -0.137228
v -0.063661 0.077608 -0.164739
v -0.063668 0.077608 -0.070820
v -0.064033 0.156938 -0.163841
v -0.064033 0.156938 -0.163841
v -0.043571 0.156938 -0.136857
v -0.043571 0.156938 -0.136857
v -0.043571 0.156938 -0.136857
v -0.043571 0.156938 -0.136857
v -0.037055 0.156938 -0.098698
v -0.037055 0.156938 -0.098698
v -0.064039 0.156938 -0.071717
v -0.064039 0.156938 -0.071717
v -0.102199 0.156938 -0.076349
v -0.102199 0.156938 -0.076349
v -0.102199 0.156938 -0.076349
v -0.102199 0.156938 -0.076349
v -0.129179 0.156938 -0.098705
v -0.129179 0.156938 -0.098705
v -0.129176 0.156938 -0.136864
v -0.129176 0.156938 -0.136864
v -0.102192 0.156938 -0.163844
v -0.102192 0.156938 -0.163844
v -0.038393 0.154647 -0.139000
v -0.038393 0.154647 -0.139000
v -0.061888 0.154647 -0.169017
v -0.031879 0.154647 -0.096553
v -0.061896 0.154647 -0.066541
v -0.104343 0.154647 -0.071173
v -0.104343 0.154647 -0.071173
v -0.134355 0.154647 -0.096561
v -0.134352 0.154647 -0.139008
v -0.104335 0.154647 -0.169020
v -0.065349 0.151636 -0.160664
v -0.065349 0.151636 -0.160664
v -0.065349 0.151636 -0.160664
v -0.065349 0.151636 -0.160664
v -0.046747 0.151636 -0.135541
v -0.046747 0.151636 -0.135541
v -0.046747 0.151636 -0.135541
v -0.046747 0.151636 -0.135541
v -0.040232 0.151636 -0.100014
v -0.040232 0.151636 -0.100014
v -0.065355 0.151636 -0.074895
v -0.065355 0.151636 -0.074895
v -0.100882 0.151636 -0.079526
v -0.100882 0.151636 -0.079526
v -0.100882 0.151636 -0.079526
v -0.100882 0.151636 -0.079526
v -0.126001 0.151636 -0.100020
v -0.126001 0.151636 -0.100020
v -0.125999 0.151636 -0.135547
v -0.125999 0.151636 -0.135547
v -0.100876 0.151636 -0.160667
v -0.100876 0.151636 -0.160667
v -0.100876 0.151636 -0.160667
v -0.100876 0.151636 -0.160667
v -0.043571 0.153268 -0.136857
v -0.043571 0.153268 -0.136857
v -0.043571 0.153268 -0.136857
v -0.043571 0.153268 -0.136857
v -0.064033 0.153268 -0.163841
v -0.064033 0.153268 -0.163841
v -0.064033 0.153268 -0.163841
v -0.064033 0.153268 -0.163841
v -0.037055 0.153268 -0.098698
v -0.037055 0.153268 -0.098698
v -0.064039 0.153268 -0.071717
v -0.064039 0.153268 -0.071717
v -0.102199 0.153268 -0.076349
v -0.102199 0.153268 -0.076349
v -0.102199 0.153268 -0.076349
v -0.102199 0.153268 -0.076349
v -0.129179 0.153268 -0.098705
v -0.129179 0.153268 -0.098705
v -0.129176 0.153268 -0.136864
v -0.129176 0.153268 -0.136864
v -0.102192 0.153268 -0.163844
v -0.102192 0.153268 -0.163844
v -0.102192 0.153268 -0.163844
v -0.102192 0.153268 -0.163844
v -0.063661 0.149656 -0.164739
v -0.063661 0.149656 -0.164739
v -0.042672 0.149656 -0.137228
v -0.042672 0.149656 -0.137228
v -0.042672 0.149656 -0.137228
v -0.042672 0.149656 -0.137228
v -0.036157 0.149656 -0.098326
v -0.036157 0.149656 -0.098326
v -0.063668 0.149656 -0.070820
v -0.063668 0.149656 -0.070820
v -0.102570 0.149656 -0.075452
v -0.102570 0.149656 -0.075452
v -0.102570 0.149656 -0.075452
v -0.102570 0.149656 -0.075452
v -0.130076 0.149656 -0.098333
v -0.130076 0.149656 -0.098333
v -0.130073 0.149656 -0.137235
v -0.130073 0.149656 -0.137235
v -0.102564 0.149656 -0.164742
v -0.102564 0.149656 -0.164742
v -0.063661 0.008483 -0.164739
v -0.063661 0.008483 -0.164739
v -0.040366 0.008483 -0.137228
v -0.040366 0.008483 -0.137228
v -0.040366 0.008483 -0.137228
v -0.036157 0.008483 -0.098326
v -0.036157 0.008483 -0.098326
v -0.063668 0.008483 -0.070820
v -0.063668 0.008483 -0.070820
v -0.102570 0.008483 -0.075317
v -0.102570 0.008483 -0.075317
v -0.102570 0.008483 -0.075317
v -0.130076 0.008483 -0.098333
v -0.130076 0.008483 -0.098333
v -0.124345 0.008483 -0.137235
v -0.124345 0.008483 -0.137235
v -0.102564 0.008483 -0.164742
v -0.102564 0.008483 -0.164742
v -0.061791 -0.000000 -0.169251
v -0.061791 -0.000000 -0.169251
v -0.035854 -0.000000 -0.139097
v -0.035854 -0.000000 -0.139097
v -0.035854 -0.000000 -0.139097
v -0.031646 -0.000000 -0.096457
v -0.031646 -0.000000 -0.096457
v -0.061799 -0.000000 -0.066308
v -0.061799 -0.000000 -0.066308
v -0.104440 -0.000000 -0.070805
v -0.104440 -0.000000 -0.070805
v -0.104440 -0.000000 -0.070805
v -0.134588 -0.000000 -0.096464
v -0.134588 -0.000000 -0.096464
v -0.128858 -0.000000 -0.139105
v -0.128858 -0.000000 -0.139105
v -0.104433 -0.000000 -0.169254
v -0.104433 -0.000000 -0.169254
v -0.042598 0.056162 -0.098326
v -0.123705 0.077608 -0.098333
v -0.102570 0.077608 -0.077359
v -0.102570 0.077608 -0.077359
v -0.063997 0.154726 -0.161862
v -0.063997 0.154726 -0.161862
v -0.063997 0.154726 -0.161862
v -0.102073 0.154757 -0.161837
v -0.102073 0.154757 -0.161837
v -0.102073 0.154757 -0.161837
v -0.037046 0.175948 -0.145339
v -0.037046 0.175948 -0.145339
v -0.037005 0.205991 -0.121948
v -0.037005 0.205991 -0.121948
v -0.063900 0.221720 -0.096375
v -0.063900 0.221720 -0.096375
v -0.101977 0.221752 -0.096351
v -0.101977 0.221752 -0.096351
v -0.128928 0.206068 -0.121889
v -0.128928 0.206068 -0.121889
v -0.128969 0.183981 -0.149848
v -0.128969 0.183981 -0.149848
v -0.102073 0.152590 -0.159053
v -0.102073 0.152590 -0.159053
v -0.063997 0.152559 -0.159078
v -0.063997 0.152559 -0.159078
v -0.037046 0.173781 -0.142555
v -0.037046 0.173781 -0.142555
v -0.037005 0.203824 -0.119164
v -0.037005 0.203824 -0.119164
v -0.063900 0.219553 -0.093592
v -0.063900 0.219553 -0.093592
v -0.101977 0.219585 -0.093567
v -0.101977 0.219585 -0.093567
v -0.128928 0.203900 -0.119105
v -0.128928 0.203900 -0.119105
v -0.128969 0.181814 -0.147064
v -0.128969 0.181814 -0.147064
v -0.068534 0.158676 -0.146885
v -0.068534 0.158676 -0.146885
v -0.097257 0.158400 -0.146559
v -0.097257 0.158400 -0.146559
v -0.048055 0.175580 -0.135191
v -0.048055 0.175580 -0.135191
v -0.047979 0.199468 -0.118081
v -0.047979 0.199468 -0.118081
v -0.068806 0.210013 -0.096743
v -0.068806 0.210013 -0.096743
v -0.097177 0.209726 -0.096408
v -0.097177 0.209726 -0.096408
v -0.117970 0.198760 -0.117371
v -0.117970 0.198760 -0.117371
v -0.117949 0.183045 -0.139368
v -0.117949 0.183045 -0.139368
v -0.097232 0.162371 -0.158556
v -0.097232 0.162371 -0.158556
v -0.068558 0.162649 -0.158883
v -0.068558 0.162649 -0.158883
v -0.048114 0.179528 -0.147213
v -0.048114 0.179528 -0.147213
v -0.048037 0.203382 -0.130137
v -0.048037 0.203382 -0.130137
v -0.068833 0.213902 -0.108823
v -0.068833 0.213902 -0.108823
v -0.097151 0.213614 -0.108486
v -0.097151 0.213614 -0.108486
v -0.117912 0.202671 -0.129423
v -0.117912 0.202671 -0.129423
v -0.117891 0.186989 -0.151388
v -0.117891 0.186989 -0.151388
vn 0.0002 0.8042 -0.5943
vn 0.0002 0.8043 -0.5943
vn 0.8139 -0.5099 -0.2786
vn 0.8330 -0.4969 -0.2434
vn 0.9235 -0.3027 -0.2357
vn 0.9414 0.2663 0.2073
vn 0.9163 0.3161 0.2461
vn 0.4236 0.7148 0.5565
vn 0.3572 0.7370 0.5738
vn -0.4217 0.7155 0.5570
vn -0.3552 0.7376 0.5743
vn -0.9498 0.2469 0.1922
vn -0.9017 0.3412 0.2656
vn 0.9335 0.0510 -0.3549
vn 0.9317 0.0177 -0.3627
vn 0.9436 0.0220 0.3303
vn 0.9461 0.0658 0.3172
vn -0.9337 -0.2826 -0.2200
vn -0.9367 -0.2763 -0.2151
vn -0.8628 -0.4551 -0.2201
vn -0.8573 -0.4598 -0.2316
vn 0.3467 -0.0032 0.9380
vn 0.3526 0.0296 0.9353
vn -0.4241 0.0004 0.9056
vn -0.4199 0.0277 0.9071
vn -0.4200 0.0277 0.9071
vn -0.4242 0.0004 0.9056
vn -0.9015 -0.0100 0.4326
vn -0.9160 0.0235 0.4004
vn -0.9459 -0.0177 -0.3241
vn -0.9413 -0.0291 -0.3365
vn -0.3738 -0.0078 -0.9275
vn -0.4036 -0.0578 -0.9131
vn 0.4717 0.0026 -0.8817
vn 0.4656 -0.0165 -0.8848
vn 0.4746 0.0243 -0.8799
vn 0.9322 -0.0172 -0.3616
vn 0.9317 0.0177 -0.3628
vn 0.9322 -0.0172 -0.3615
vn 0.9478 -0.0335 0.3172
vn 0.3434 -0.0232 0.9389
vn -0.4201 -0.0268 0.9071
vn -0.4202 -0.0268 0.9070
vn -0.9010 -0.0440 0.4316
vn -0.9467 -0.0073 -0.3220
vn -0.3471 -0.4210 -0.8380
vn -0.3629 0.3165 -0.8764
vn 0.4080 0.3097 -0.8589
vn 0.4020 -0.4293 -0.8088
vn -0.3793 0.0410 -0.9244
vn 0.6789 0.6955 0.2355
vn 0.2325 0.6959 0.6794
vn 0.3170 0.3442 0.8837
vn 0.8828 0.3441 0.3198
vn -0.4005 0.3442 -0.8492
vn 0.3891 0.3438 -0.8546
vn 0.4171 -0.0000 -0.9089
vn -0.4304 -0.0000 -0.9026
vn -0.6640 0.7047 0.2498
vn -0.6809 0.6704 -0.2949
vn -0.8640 0.3394 -0.3718
vn -0.8751 0.3466 0.3379
vn -0.2920 0.6743 0.6783
vn -0.3700 0.3400 0.8646
vn -0.3157 0.6960 -0.6449
vn 0.6777 0.6753 -0.2911
vn 0.8648 0.3402 -0.3693
vn -0.2921 0.6743 0.6782
vn -0.3701 0.3400 0.8646
vn 0.3050 0.6939 -0.6523
vn 0.6776 0.6753 -0.2912
vn 0.8648 0.3402 -0.3694
vn -0.9182 -0.0000 -0.3961
vn -0.9338 -0.0000 0.3579
vn -0.3941 -0.0000 0.9191
vn 0.3336 -0.0000 0.9427
vn 0.9416 -0.0000 0.3368
vn 0.9194 -0.0000 -0.3934
vn 0.9193 -0.0000 -0.3935
vn 0.8602 -0.4313 0.2722
vn 0.9001 0.3079 0.3081
vn 0.3235 0.3103 0.8939
vn 0.2941 -0.4285 0.8543
vn -0.8185 -0.4267 0.3848
vn -0.8645 0.3118 0.3941
vn -0.8764 0.3164 -0.3631
vn -0.8379 -0.4211 -0.3472
vn 0.8401 -0.4018 -0.3643
vn 0.8663 0.3324 -0.3730
vn -0.3713 0.3276 0.8688
vn -0.3610 -0.4073 0.8389
vn -0.3611 -0.4073 0.8389
vn -0.3714 0.3276 0.8688
vn 0.3826 -0.0000 0.9239
vn 0.9239 -0.0000 0.3827
vn 0.9239 -0.0000 0.3828
vn 0.1691 0.9288 -0.3297
vn 0.3647 0.9175 -0.1587
vn 0.8662 0.3324 -0.3730
vn 0.3648 0.9175 -0.1586
vn 0.3534 0.9295 0.1056
vn 0.1171 0.9285 0.3524
vn -0.1554 0.9200 0.3599
vn -0.3362 0.9279 0.1614
vn -0.3497 0.9256 -0.1449
vn -0.1448 0.9256 -0.3497
vn 0.1687 -0.9052 -0.3900
vn 0.1669 -0.9052 -0.3909
vn 0.3673 -0.9151 -0.1662
vn 0.3626 -0.9151 -0.1762
vn 0.9050 -0.0000 -0.4254
vn 0.3953 -0.0000 -0.9185
vn -0.3262 -0.0000 -0.9453
vn -0.9529 -0.0000 -0.3033
vn -0.9175 -0.0000 0.3977
vn -0.4449 -0.0000 0.8956
vn 0.3952 -0.0000 -0.9186
vn -0.9176 -0.0000 0.3976
vn -0.3687 0.8875 0.2764
vn -0.4142 0.8922 0.1804
vn -0.4150 0.8921 0.1785
vn -0.4142 0.8922 0.1803
vn -0.4012 0.9086 -0.1159
vn -0.3940 0.9087 -0.1376
vn -0.4150 0.8921 0.1784
vn -0.1301 0.9073 -0.3999
vn -0.1446 0.9073 -0.3948
vn 0.1766 0.8956 -0.4083
vn 0.1747 0.8956 -0.4091
vn 0.1767 0.8956 -0.4083
vn 0.3797 0.9065 -0.1847
vn 0.3846 0.9065 -0.1743
vn 0.1748 0.8956 -0.4091
vn 0.3962 0.9034 0.1642
vn 0.3232 0.8894 0.3232
vn 0.9038 -0.4223 -0.0697
vn -0.3829 -0.9171 -0.1109
vn -0.3761 -0.9172 -0.1316
vn -0.1382 -0.9159 -0.3769
vn -0.1244 -0.9159 -0.3818
vn 0.1567 -0.9123 0.3784
vn -0.1702 -0.9163 0.3624
vn -0.1855 -0.9163 0.3550
vn 0.3784 -0.9123 0.1568
vn 0.1687 -0.9052 -0.3901
vn -0.3957 -0.9021 0.1723
vn -0.3965 -0.9021 0.1704
vn 0.8401 -0.4018 -0.3644
vn 0.9000 0.0097 -0.4358
vn 0.4263 -0.0010 -0.9046
vn 0.4220 -0.0294 -0.9061
vn 0.9154 -0.0250 -0.4017
vn -0.3446 0.0030 -0.9387
vn -0.9449 -0.0254 -0.3265
vn -0.9472 -0.0719 -0.3124
vn -0.3513 -0.0321 -0.9357
vn -0.9322 -0.0201 0.3613
vn -0.4775 -0.0023 0.8786
vn -0.4710 0.0175 0.8819
vn -0.9341 -0.0558 0.3527
vn 0.3733 0.0092 0.9277
vn 0.4050 0.0618 0.9122
vn 0.9470 0.0187 0.3206
vn 0.9422 0.0310 0.3336
vn 0.4262 -0.0010 -0.9046
vn 0.4219 -0.0294 -0.9062
vn -0.9323 -0.0201 0.3612
vn -0.3410 0.0238 -0.9398
vn -0.9490 0.0343 -0.3134
vn -0.9328 0.0174 0.3599
vn -0.4804 -0.0249 0.8767
vn 0.3788 -0.0419 0.9245
vn 0.9479 0.0075 0.3184
vn 0.8993 0.0449 -0.4351
vn 0.4222 0.0273 -0.9061
vn -0.9329 0.0175 0.3598
vn 0.4223 0.0274 -0.9061
vn -0.9296 -0.3674 -0.0291
vn -0.0002 -0.8625 0.5061
vn 0.1077 -0.8581 0.5021
vn -0.1773 -0.8263 0.5345
vn -0.0403 0.3262 -0.9444
vn 0.1020 0.3825 -0.9183
vn 0.1196 0.3835 -0.9158
vn -0.0448 0.3198 -0.9464
vn 0.2874 0.4674 -0.8360
vn 0.3090 0.4935 -0.8130
vn 0.2244 0.7284 -0.6474
vn 0.1716 0.7786 -0.6036
vn 0.0112 0.8633 -0.5045
vn 0.0090 0.8603 -0.5097
vn 0.0004 0.8527 -0.5223
vn -0.0005 0.8510 -0.5252
vn -0.1285 0.8215 -0.5556
vn -0.0859 0.8373 -0.5400
vn -0.1520 0.5240 -0.8380
vn -0.1742 0.5983 -0.7821
vn 0.1558 -0.8511 0.5014
vn -0.2451 -0.8056 0.5394
vn 0.3301 -0.6737 0.6612
vn 0.3267 -0.6866 0.6495
vn 0.3783 -0.5636 0.7344
vn 0.3731 -0.5633 0.7372
vn 0.1957 -0.4354 0.8787
vn 0.2297 -0.4586 0.8585
vn -0.2081 -0.4117 0.8872
vn -0.2432 -0.4289 0.8700
vn -0.4119 -0.6198 0.6680
vn -0.4028 -0.6520 0.6423
vn -0.4249 -0.6943 0.5809
vn -0.4332 -0.6866 0.5839
vn -0.1167 -0.6573 0.7445
vn -0.2677 -0.6535 0.7080
vn -0.2564 -0.6742 0.6926
vn -0.1802 -0.6172 0.7659
vn -0.2132 -0.7912 0.5731
vn -0.2176 -0.7884 0.5754
vn -0.1258 -0.7110 0.6919
vn -0.1217 -0.7096 0.6940
vn 0.1483 -0.7261 0.6715
vn 0.1464 -0.7250 0.6730
vn 0.1514 -0.6794 0.7180
vn 0.1632 -0.6914 0.7038
vn 0.0941 -0.6009 0.7938
vn 0.0878 -0.5956 0.7985
vn 0.0383 -0.7016 0.7115
vn 0.0865 -0.6983 0.7106
vn 0.1484 0.6438 -0.7507
vn 0.1216 0.5351 -0.8360
vn 0.1258 0.5315 -0.8377
vn 0.1431 0.6528 -0.7439
vn 0.0920 0.8317 -0.5476
vn 0.0983 0.8311 -0.5474
vn 0.0762 0.7880 -0.6110
vn 0.0730 0.7867 -0.6130
vn -0.0986 0.8023 -0.5888
vn -0.0967 0.8008 -0.5911
vn -0.0364 0.7211 -0.6919
vn -0.0456 0.7318 -0.6800
vn 0.0215 0.5605 -0.8279
vn 0.0245 0.5602 -0.8280
vn -0.0352 0.6084 -0.7929
vn -0.0354 0.6075 -0.7935
vn -0.0359 -0.6982 0.7150
vn -0.0358 -0.6982 0.7150
vn 0.0359 0.6982 -0.7150
vn 0.0358 0.6982 -0.7150
vn -0.0000 1.0000 -0.0000
vn -0.0000 -1.0000 -0.0000
vt 0.939793 0.715297
vt 0.939731 0.772965
vt 0.943508 0.772790
vt 0.943508 0.715247
vt 0.897976 0.694741
vt 0.903305 0.694565
vt 0.901412 0.637054
vt 0.896084 0.637230
vt 0.899519 0.579543
vt 0.894190 0.579718
vt 0.881703 0.521292
vt 0.876374 0.521467
vt 0.879812 0.463779
vt 0.874483 0.463955
vt 0.893762 0.404486
vt 0.888434 0.404661
vt 0.443500 0.474819
vt 0.445538 0.553031
vt 0.508638 0.552648
vt 0.505172 0.472197
vt 0.904871 0.351798
vt 0.899543 0.351973
vt 0.890026 0.290883
vt 0.884698 0.291058
vt 0.565301 0.585696
vt 0.566588 0.474060
vt 0.628563 0.585689
vt 0.629032 0.474669
vt 0.232270 0.694284
vt 0.119881 0.696510
vt 0.119226 0.745902
vt 0.232678 0.752014
vt 0.118383 0.809099
vt 0.229902 0.815673
vt 0.119062 0.877055
vt 0.229095 0.872896
vt 0.119660 0.938844
vt 0.231079 0.935722
vt 0.008423 0.937927
vt 0.008125 0.994053
vt 0.152763 0.994288
vt 0.442646 0.696072
vt 0.504671 0.697990
vt 0.566638 0.697139
vt 0.629032 0.696543
vt 0.007614 0.691455
vt 0.005681 0.749012
vt 0.007101 0.812087
vt 0.157506 0.257055
vt 0.162424 0.257425
vt 0.173390 0.198307
vt 0.167375 0.196294
vt 0.009085 0.875134
vt 0.501409 0.169791
vt 0.501798 0.109952
vt 0.498232 0.109506
vt 0.497439 0.170206
vt 0.817883 0.814358
vt 0.834600 0.758718
vt 0.832172 0.757577
vt 0.814995 0.813924
vt 0.834686 0.934843
vt 0.822182 0.870773
vt 0.818339 0.871208
vt 0.830875 0.936364
vt 0.520353 0.052906
vt 0.517087 0.051084
vt 0.821681 0.815025
vt 0.520353 0.233678
vt 0.516680 0.235623
vt 0.866926 0.989610
vt 0.863758 0.992522
vt 0.837761 0.760085
vt 0.866926 0.715772
vt 0.864428 0.713215
vt 0.815254 0.871495
vt 0.827845 0.937487
vt 0.514431 0.050227
vt 0.495464 0.109042
vt 0.494360 0.170613
vt 0.513402 0.236578
vt 0.860668 0.994319
vt 0.862197 0.711753
vt 0.640411 0.193322
vt 0.645149 0.192397
vt 0.643778 0.137355
vt 0.637765 0.136684
vt 0.172258 0.365733
vt 0.177293 0.363737
vt 0.164105 0.311954
vt 0.158989 0.312544
vt 0.656391 0.248544
vt 0.661304 0.247635
vt 0.659342 0.067632
vt 0.653134 0.067008
vt 0.198422 0.414732
vt 0.203366 0.412855
vt 0.232678 0.347128
vt 0.232678 0.289460
vt 0.227133 0.289460
vt 0.227133 0.347128
vt 0.183109 0.200723
vt 0.209710 0.144449
vt 0.201047 0.137466
vt 0.668694 0.243531
vt 0.652700 0.191898
vt 0.653310 0.137801
vt 0.668694 0.072533
vt 0.209710 0.406542
vt 0.184571 0.361242
vt 0.172360 0.310772
vt 0.171190 0.258084
vt 0.792389 0.163247
vt 0.793845 0.156087
vt 0.739918 0.160047
vt 0.743498 0.166417
vt 0.232678 0.231792
vt 0.232678 0.178839
vt 0.227133 0.178839
vt 0.227133 0.231792
vt 0.859852 0.436006
vt 0.859852 0.378338
vt 0.854307 0.378338
vt 0.854307 0.436006
vt 0.232678 0.455976
vt 0.232678 0.404796
vt 0.227133 0.404796
vt 0.227133 0.455976
vt 0.859852 0.494098
vt 0.854307 0.494098
vt 0.859852 0.319835
vt 0.854307 0.319835
vt 0.473301 0.718157
vt 0.472822 0.765397
vt 0.478421 0.766712
vt 0.478421 0.715533
vt 0.626403 0.243581
vt 0.585382 0.207569
vt 0.579953 0.209473
vt 0.623496 0.248544
vt 0.586221 0.153885
vt 0.580854 0.151812
vt 0.626403 0.117593
vt 0.623658 0.112536
vt 0.482998 0.231568
vt 0.448047 0.197234
vt 0.442646 0.199216
vt 0.480170 0.236578
vt 0.448114 0.143543
vt 0.442718 0.141548
vt 0.482998 0.102730
vt 0.480187 0.097710
vt 0.899118 0.697990
vt 0.904871 0.697935
vt 0.091775 0.156766
vt 0.084888 0.154323
vt 0.085819 0.213108
vt 0.092623 0.210449
vt 0.709415 0.261093
vt 0.702597 0.263719
vt 0.741555 0.307751
vt 0.744993 0.301304
vt 0.701947 0.204932
vt 0.708820 0.207406
vt 0.129708 0.252846
vt 0.133122 0.246387
vt 0.133122 0.121129
vt 0.129498 0.114784
vt 0.194804 0.135453
vt 0.355012 0.943575
vt 0.355599 0.989357
vt 0.461017 0.991648
vt 0.461459 0.937458
vt 0.588318 0.887735
vt 0.535237 0.920856
vt 0.531797 0.994319
vt 0.589625 0.992373
vt 0.388545 0.709436
vt 0.355435 0.761295
vt 0.459860 0.764397
vt 0.461459 0.709352
vt 0.354783 0.819546
vt 0.457869 0.823662
vt 0.354162 0.883929
vt 0.458703 0.877336
vt 0.648042 0.887725
vt 0.648508 0.991747
vt 0.475728 0.920400
vt 0.473700 0.991591
vt 0.793845 0.308473
vt 0.792235 0.301346
vt 0.589678 0.778902
vt 0.531296 0.778074
vt 0.246553 0.709655
vt 0.246835 0.762201
vt 0.247464 0.821385
vt 0.245484 0.880831
vt 0.244040 0.940318
vt 0.648508 0.779489
vt 0.472822 0.779944
vt 0.245852 0.994319
vt 0.891362 0.287346
vt 0.885630 0.287829
vt 0.803633 0.886301
vt 0.765563 0.847572
vt 0.762114 0.848065
vt 0.802872 0.889615
vt 0.232678 0.994319
vt 0.053277 0.277413
vt 0.097241 0.277240
vt 0.104434 0.264208
vt 0.045467 0.264733
vt 0.128121 0.308813
vt 0.146144 0.305778
vt 0.128068 0.352911
vt 0.146144 0.364365
vt 0.098515 0.390459
vt 0.107059 0.412819
vt 0.054996 0.391980
vt 0.048009 0.414732
vt 0.022754 0.356189
vt 0.005681 0.368690
vt 0.023632 0.316154
vt 0.006149 0.313979
vt 0.752793 0.868109
vt 0.782389 0.897892
vt 0.709150 0.868202
vt 0.702979 0.848221
vt 0.676089 0.900358
vt 0.660223 0.890375
vt 0.676453 0.949355
vt 0.659871 0.953953
vt 0.706225 0.977367
vt 0.701590 0.994319
vt 0.752939 0.976701
vt 0.763666 0.992172
vt 0.783440 0.947630
vt 0.803633 0.953545
vt 0.763151 0.904180
vt 0.763022 0.936975
vt 0.745088 0.954227
vt 0.715327 0.955803
vt 0.698342 0.939620
vt 0.699615 0.908273
vt 0.719698 0.887891
vt 0.745915 0.887432
vt 0.043998 0.322659
vt 0.063372 0.297053
vt 0.044001 0.346733
vt 0.063761 0.369352
vt 0.087943 0.368457
vt 0.106980 0.344177
vt 0.106861 0.316631
vt 0.088340 0.297396
vt 0.753768 0.458982
vt 0.701947 0.372653
vt 0.708694 0.431057
vt 0.739204 0.332906
vt 0.813166 0.460835
vt 0.796876 0.319835
vt 0.842945 0.415546
vt 0.842945 0.356364
vt 0.341910 0.432629
vt 0.245893 0.376691
vt 0.277823 0.425874
vt 0.385672 0.391422
vt 0.244040 0.311697
vt 0.398756 0.328004
vt 0.293418 0.277913
vt 0.358217 0.277913
s 1
usemtl Cans
f 539/383/302 554/384/302 622/385/303
f 539/383/302 622/385/303 617/386/302
f 638/387/304 619/388/305 624/389/306
f 638/387/304 624/389/306 640/390/306
f 640/390/306 624/389/306 626/391/307
f 640/390/306 626/391/307 642/392/308
f 642/392/308 626/391/307 628/393/309
f 642/392/308 628/393/309 644/394/310
f 644/394/310 628/393/309 629/395/311
f 644/394/310 629/395/311 645/396/312
f 645/396/312 629/395/311 631/397/313
f 645/396/312 631/397/313 647/398/314
f 430/399/315 403/400/316 399/401/317
f 430/399/315 399/401/317 436/402/318
f 647/398/314 631/397/313 633/403/319
f 647/398/314 633/403/319 649/404/320
f 649/404/320 633/403/319 620/405/321
f 649/404/320 620/405/321 635/406/322
f 436/402/318 399/401/317 396/407/323
f 436/402/318 396/407/323 440/408/324
f 440/408/324 396/407/323 393/409/325
f 440/408/324 393/409/325 444/410/326
f 443/411/327 392/412/328 389/413/329
f 443/411/327 389/413/329 451/414/330
f 451/414/330 389/413/329 386/415/331
f 451/414/330 386/415/331 455/416/332
f 455/416/332 386/415/331 384/417/333
f 455/416/332 384/417/333 459/418/334
f 459/418/334 384/417/333 406/419/335
f 459/418/334 406/419/335 424/420/336
f 406/419/335 426/421/337 433/422/338
f 406/419/335 433/422/338 402/423/339
f 403/400/316 434/424/340 438/425/341
f 403/400/316 438/425/341 399/401/317
f 399/401/317 438/425/341 442/426/342
f 399/401/317 442/426/342 396/407/323
f 396/407/323 442/426/342 448/427/343
f 396/407/323 448/427/343 393/409/325
f 392/412/328 447/428/344 453/429/345
f 392/412/328 453/429/345 389/413/329
f 389/413/329 453/429/345 457/430/346
f 389/413/329 457/430/346 386/415/331
f 462/431/347 508/432/348 501/433/349
f 462/431/347 501/433/349 425/434/350
f 386/415/331 457/430/346 461/435/351
f 386/415/331 461/435/351 384/417/333
f 384/417/333 461/435/351 426/421/337
f 384/417/333 426/421/337 406/419/335
f 435/436/352 439/437/353 467/438/354
f 435/436/352 467/438/354 466/439/355
f 472/440/356 463/441/357 596/442/358
f 472/440/356 596/442/358 611/443/359
f 452/444/360 456/445/361 471/446/362
f 452/444/360 471/446/362 470/447/363
f 439/437/353 445/448/364 468/449/365
f 439/437/353 468/449/365 467/438/354
f 456/445/361 460/450/366 472/440/356
f 456/445/361 472/440/356 471/446/362
f 427/451/367 435/436/352 466/439/355
f 427/451/367 466/439/355 464/452/368
f 446/453/369 452/444/360 470/447/363
f 446/453/369 470/447/363 469/454/370
f 460/450/366 423/455/371 463/441/357
f 460/450/366 463/441/357 472/440/356
f 423/455/371 428/456/372 465/457/373
f 423/455/371 465/457/373 463/441/357
f 470/447/363 471/446/362 609/458/374
f 470/447/363 609/458/374 607/459/375
f 467/438/354 468/449/365 604/460/376
f 467/438/354 604/460/376 603/461/377
f 464/452/368 466/439/355 601/462/378
f 464/452/368 601/462/378 598/463/379
f 471/446/362 472/440/356 611/443/359
f 471/446/362 611/443/359 609/458/374
f 469/454/370 470/447/363 607/459/375
f 469/454/370 607/459/375 605/464/376
f 466/439/355 467/438/354 603/461/377
f 466/439/355 603/461/377 601/462/378
f 463/441/357 465/457/373 599/465/380
f 463/441/357 599/465/380 596/442/358
f 437/466/381 502/467/382 503/468/383
f 437/466/381 503/468/383 441/469/384
f 454/470/385 506/471/386 507/472/387
f 454/470/385 507/472/387 458/473/388
f 432/474/389 500/475/390 502/467/382
f 432/474/389 502/467/382 437/466/381
f 441/469/384 503/468/383 505/476/391
f 441/469/384 505/476/391 450/477/392
f 458/473/388 507/472/387 508/432/348
f 458/473/388 508/432/348 462/431/347
f 449/478/393 504/479/394 506/471/386
f 449/478/393 506/471/386 454/470/385
f 498/480/395 496/481/396 552/482/397
f 498/480/395 552/482/397 556/483/395
f 480/484/398 483/485/399 499/486/400
f 480/484/398 499/486/400 501/433/349
f 484/487/401 486/488/402 502/467/382
f 484/487/401 502/467/382 500/475/390
f 486/488/402 488/489/403 503/468/383
f 486/488/402 503/468/383 502/467/382
f 488/489/403 490/490/404 505/476/391
f 488/489/403 505/476/391 503/468/383
f 489/491/404 493/492/405 506/471/386
f 489/491/404 506/471/386 504/479/394
f 493/492/405 495/493/406 507/472/387
f 493/492/405 507/472/387 506/471/386
f 495/493/406 497/494/407 508/432/348
f 495/493/406 508/432/348 507/472/387
f 497/494/407 480/484/398 501/433/349
f 497/494/407 501/433/349 508/432/348
f 522/495/408 568/496/409 571/497/410
f 522/495/408 571/497/410 525/498/411
f 494/499/412 491/500/413 547/501/413
f 494/499/412 547/501/413 550/502/412
f 487/503/414 485/504/415 541/505/415
f 487/503/414 541/505/415 543/506/414
f 481/507/416 479/508/417 537/509/417
f 481/507/416 537/509/417 533/510/416
f 479/508/417 498/480/395 556/483/395
f 479/508/417 556/483/395 537/509/417
f 496/481/396 494/499/412 550/502/412
f 496/481/396 550/502/412 552/482/397
f 492/511/418 487/503/414 543/506/414
f 492/511/418 543/506/414 548/512/418
f 485/504/415 482/513/419 534/514/419
f 485/504/415 534/514/419 541/505/415
f 509/515/420 513/516/421 535/517/422
f 509/515/420 535/517/422 538/518/420
f 514/519/423 517/520/424 542/521/425
f 514/519/423 542/521/425 536/522/426
f 517/520/424 519/523/427 544/524/428
f 517/520/424 544/524/428 542/521/425
f 519/523/427 524/525/429 546/526/430
f 519/523/427 546/526/430 544/524/428
f 523/527/431 526/528/432 549/529/433
f 523/527/431 549/529/433 545/530/434
f 526/528/432 528/531/435 551/532/435
f 526/528/432 551/532/435 549/529/433
f 528/531/435 532/533/436 555/534/436
f 528/531/435 555/534/436 551/532/435
f 512/535/437 540/536/437 619/388/305
f 512/535/437 619/388/305 638/387/304
f 518/537/438 564/538/439 566/539/440
f 518/537/438 566/539/440 520/540/441
f 531/541/442 575/542/442 558/543/443
f 531/541/442 558/543/443 510/544/444
f 525/498/411 571/497/410 573/545/445
f 525/498/411 573/545/445 527/546/445
f 520/540/441 566/539/440 567/547/409
f 520/540/441 567/547/409 521/548/446
f 515/549/447 561/550/448 564/538/439
f 515/549/447 564/538/439 518/537/438
f 425/434/350 501/433/349 499/486/400
f 425/434/350 499/486/400 431/551/449
f 527/546/445 573/545/445 575/542/442
f 527/546/445 575/542/442 531/541/442
f 614/552/450 615/553/451 587/554/452
f 614/552/450 587/554/452 590/555/453
f 478/556/454 613/557/455 582/558/456
f 478/556/454 582/558/456 584/559/457
f 475/560/458 477/561/459 577/562/460
f 475/560/458 577/562/460 579/563/461
f 477/561/459 474/564/462 594/565/463
f 477/561/459 594/565/463 577/562/460
f 473/566/464 614/552/450 590/555/453
f 473/566/464 590/555/453 592/567/465
f 616/568/466 478/556/454 584/559/457
f 616/568/466 584/559/457 588/569/467
f 613/557/455 476/570/468 580/571/461
f 613/557/455 580/571/461 582/558/456
f 474/564/462 473/566/464 592/567/465
f 474/564/462 592/567/465 594/565/463
f 510/544/444 558/543/443 562/572/448
f 510/544/444 562/572/448 516/573/447
f 565/574/469 563/575/470 613/557/455
f 565/574/469 613/557/455 478/556/454
f 559/576/471 557/577/472 477/561/459
f 559/576/471 477/561/459 475/560/458
f 557/577/472 576/578/473 474/564/462
f 557/577/472 474/564/462 477/561/459
f 574/579/474 572/580/475 614/552/450
f 574/579/474 614/552/450 473/566/464
f 570/581/476 565/574/469 478/556/454
f 570/581/476 478/556/454 616/568/466
f 563/575/470 560/582/477 476/570/468
f 563/575/470 476/570/468 613/557/455
f 576/578/473 574/579/474 473/566/464
f 576/578/473 473/566/464 474/564/462
f 572/580/475 569/583/478 615/553/451
f 572/580/475 615/553/451 614/552/450
f 553/584/479 529/585/479 635/406/322
f 553/584/479 635/406/322 620/405/321
f 530/586/480 511/587/480 637/588/481
f 530/586/480 637/588/481 636/589/482
f 424/420/336 406/419/335 402/423/339
f 424/420/336 402/423/339 429/590/315
f 667/591/483 670/592/484 618/593/485
f 667/591/483 618/593/485 621/594/486
f 670/592/484 672/595/487 623/596/488
f 670/592/484 623/596/488 618/593/485
f 672/595/487 674/597/489 625/598/490
f 672/595/487 625/598/490 623/596/488
f 674/597/489 676/599/491 627/600/492
f 674/597/489 627/600/492 625/598/490
f 676/599/491 677/601/493 630/602/494
f 676/599/491 630/602/494 627/600/492
f 677/601/493 679/603/495 632/604/496
f 677/601/493 632/604/496 630/602/494
f 679/603/495 681/605/497 634/606/498
f 679/603/495 634/606/498 632/604/496
f 681/605/497 667/591/483 621/594/486
f 681/605/497 621/594/486 634/606/498
f 652/607/499 653/608/500 636/589/482
f 652/607/499 636/589/482 637/588/481
f 656/609/501 652/607/499 637/588/481
f 656/609/501 637/588/481 639/610/502
f 658/611/503 656/609/501 639/610/502
f 658/611/503 639/610/502 641/612/504
f 660/613/505 658/611/503 641/612/504
f 660/613/505 641/612/504 643/614/506
f 661/615/507 660/613/505 643/614/506
f 661/615/507 643/614/506 646/616/508
f 663/617/509 661/615/507 646/616/508
f 663/617/509 646/616/508 648/618/510
f 665/619/511 663/617/509 648/618/510
f 665/619/511 648/618/510 650/620/512
f 653/608/500 665/619/511 650/620/512
f 653/608/500 650/620/512 636/589/482
f 383/621/513 404/622/514 666/619/515
f 383/621/513 666/619/515 654/608/516
f 404/622/514 400/623/517 664/617/518
f 404/622/514 664/617/518 666/619/515
f 400/623/517 397/624/519 662/615/520
f 400/623/517 662/615/520 664/617/518
f 397/624/519 395/625/521 659/613/522
f 397/624/519 659/613/522 662/615/520
f 395/625/521 391/626/523 657/611/524
f 395/625/521 657/611/524 659/613/522
f 391/626/523 388/627/525 655/609/526
f 391/626/523 655/609/526 657/611/524
f 388/627/525 385/628/527 651/607/528
f 388/627/525 651/607/528 655/609/526
f 385/628/527 383/621/513 654/608/516
f 385/628/527 654/608/516 651/607/528
f 422/629/529 410/630/530 668/591/531
f 422/629/529 668/591/531 682/605/532
f 420/631/533 422/629/529 682/605/532
f 420/631/533 682/605/532 680/603/534
f 418/632/535 420/631/533 680/603/534
f 418/632/535 680/603/534 678/601/536
f 415/633/537 418/632/535 678/601/536
f 415/633/537 678/601/536 675/599/538
f 413/634/539 415/633/537 675/599/538
f 413/634/539 675/599/538 673/597/540
f 411/635/541 413/634/539 673/597/540
f 411/635/541 673/597/540 671/595/542
f 407/636/543 411/635/541 671/595/542
f 407/636/543 671/595/542 669/592/544
f 410/630/530 407/636/543 669/592/544
f 410/630/530 669/592/544 668/591/531
f 405/622/545 398/624/545 401/623/545
f 398/624/545 405/622/545 383/621/513
f 398/624/545 383/621/513 385/628/527
f 398/624/545 385/628/527 394/625/545
f 394/625/545 385/628/527 390/626/545
f 390/626/545 385/628/527 387/627/546
f 417/632/547 421/629/548 419/631/547
f 421/629/548 417/632/547 409/630/547
f 409/630/547 417/632/547 408/636/548
f 408/636/548 417/632/547 416/633/548
f 408/636/548 416/633/548 414/634/547
f 408/636/548 414/634/547 412/635/548
s 0
f 591/637/549 578/638/549 593/639/549
f 578/638/549 591/637/549 581/640/549
f 581/640/549 591/637/549 589/641/549
f 581/640/549 589/641/549 583/642/549
f 583/642/549 589/641/549 586/643/549
f 583/642/549 586/643/549 585/644/549
f 595/645/550 610/646/550 612/647/550
f 610/646/550 595/645/550 597/648/550
f 610/646/550 597/648/550 608/649/550
f 608/649/550 597/648/550 600/650/550
f 608/649/550 600/650/550 606/651/550
f 606/651/550 600/650/550 602/652/550
